G75*
G70*
%OFA0B0*%
%FSLAX24Y24*%
%IPPOS*%
%LPD*%
%AMOC8*
5,1,8,0,0,1.08239X$1,22.5*
%
%ADD10R,0.0394X0.0433*%
%ADD11R,0.0630X0.0551*%
%ADD12R,0.0433X0.0394*%
%ADD13C,0.0110*%
%ADD14R,0.0600X0.0300*%
%ADD15R,0.0472X0.0217*%
%ADD16R,0.0669X0.0276*%
%ADD17R,0.0500X0.0220*%
%ADD18R,0.0220X0.0500*%
%ADD19R,0.0197X0.0984*%
%ADD20R,0.0787X0.0984*%
%ADD21R,0.0550X0.0137*%
%ADD22R,0.0276X0.0472*%
%ADD23R,0.0984X0.1260*%
%ADD24R,0.0433X0.0315*%
D10*
X000750Y003178D03*
X000750Y003847D03*
X000810Y007028D03*
X000810Y007697D03*
X005910Y007778D03*
X005910Y008447D03*
X005910Y004867D03*
X005910Y004198D03*
X004790Y016918D03*
X004790Y017587D03*
X001940Y023308D03*
X001940Y023977D03*
X005540Y024297D03*
X005540Y023628D03*
X014310Y014797D03*
X014310Y014128D03*
D11*
X005460Y015062D03*
X005460Y016164D03*
X002130Y016144D03*
X002130Y015042D03*
X000970Y005834D03*
X000970Y004732D03*
D12*
X001885Y013983D03*
X002555Y013983D03*
X003475Y014913D03*
X004145Y014913D03*
G36*
X002178Y021309D02*
X001873Y021004D01*
X001594Y021283D01*
X001899Y021588D01*
X002178Y021309D01*
G37*
G36*
X002652Y021782D02*
X002347Y021477D01*
X002068Y021756D01*
X002373Y022061D01*
X002652Y021782D01*
G37*
G36*
X002753Y022637D02*
X002448Y022332D01*
X002169Y022611D01*
X002474Y022916D01*
X002753Y022637D01*
G37*
G36*
X002280Y022163D02*
X001975Y021858D01*
X001696Y022137D01*
X002001Y022442D01*
X002280Y022163D01*
G37*
X011335Y024583D03*
X012005Y024583D03*
X012975Y020463D03*
X013645Y020463D03*
X014042Y019467D03*
X013645Y015963D03*
X012975Y015963D03*
X012975Y012963D03*
X013645Y012963D03*
D13*
X006042Y007320D02*
X005778Y007320D01*
X006042Y007320D02*
X006042Y007116D01*
X005778Y007116D01*
X005778Y007320D01*
X005778Y007225D02*
X006042Y007225D01*
X006042Y006690D02*
X005778Y006690D01*
X006042Y006690D02*
X006042Y006486D01*
X005778Y006486D01*
X005778Y006690D01*
X005778Y006595D02*
X006042Y006595D01*
X006042Y005986D02*
X005778Y005986D01*
X005778Y006190D01*
X006042Y006190D01*
X006042Y005986D01*
X006042Y006095D02*
X005778Y006095D01*
X005778Y005356D02*
X006042Y005356D01*
X005778Y005356D02*
X005778Y005560D01*
X006042Y005560D01*
X006042Y005356D01*
X006042Y005465D02*
X005778Y005465D01*
X004217Y016831D02*
X004217Y017095D01*
X004217Y016831D02*
X004013Y016831D01*
X004013Y017095D01*
X004217Y017095D01*
X004217Y016940D02*
X004013Y016940D01*
X004013Y017049D02*
X004217Y017049D01*
X003587Y017095D02*
X003587Y016831D01*
X003383Y016831D01*
X003383Y017095D01*
X003587Y017095D01*
X003587Y016940D02*
X003383Y016940D01*
X003383Y017049D02*
X003587Y017049D01*
X002072Y024376D02*
X001808Y024376D01*
X001808Y024580D01*
X002072Y024580D01*
X002072Y024376D01*
X002072Y024485D02*
X001808Y024485D01*
X001808Y025006D02*
X002072Y025006D01*
X001808Y025006D02*
X001808Y025210D01*
X002072Y025210D01*
X002072Y025006D01*
X002072Y025115D02*
X001808Y025115D01*
D14*
X002800Y024813D03*
X002800Y023313D03*
X004800Y023313D03*
X004800Y024813D03*
X012670Y024713D03*
X012670Y023213D03*
X014670Y023213D03*
X014670Y024713D03*
D15*
X004322Y016337D03*
X004322Y015589D03*
X003298Y015589D03*
X003298Y015963D03*
X003298Y016337D03*
D16*
X005667Y017315D03*
X005667Y017787D03*
X005667Y018260D03*
D17*
G36*
X005018Y019133D02*
X005370Y018781D01*
X005214Y018625D01*
X004862Y018977D01*
X005018Y019133D01*
G37*
G36*
X005241Y019356D02*
X005593Y019004D01*
X005437Y018848D01*
X005085Y019200D01*
X005241Y019356D01*
G37*
G36*
X005464Y019579D02*
X005816Y019227D01*
X005660Y019071D01*
X005308Y019423D01*
X005464Y019579D01*
G37*
G36*
X005686Y019801D02*
X006038Y019449D01*
X005882Y019293D01*
X005530Y019645D01*
X005686Y019801D01*
G37*
G36*
X004796Y018910D02*
X005148Y018558D01*
X004992Y018402D01*
X004640Y018754D01*
X004796Y018910D01*
G37*
G36*
X004573Y018688D02*
X004925Y018336D01*
X004769Y018180D01*
X004417Y018532D01*
X004573Y018688D01*
G37*
G36*
X004350Y018465D02*
X004702Y018113D01*
X004546Y017957D01*
X004194Y018309D01*
X004350Y018465D01*
G37*
G36*
X004128Y018242D02*
X004480Y017890D01*
X004324Y017734D01*
X003972Y018086D01*
X004128Y018242D01*
G37*
G36*
X002183Y021078D02*
X002535Y020726D01*
X002379Y020570D01*
X002027Y020922D01*
X002183Y021078D01*
G37*
G36*
X002406Y021300D02*
X002758Y020948D01*
X002602Y020792D01*
X002250Y021144D01*
X002406Y021300D01*
G37*
G36*
X002628Y021523D02*
X002980Y021171D01*
X002824Y021015D01*
X002472Y021367D01*
X002628Y021523D01*
G37*
G36*
X002851Y021746D02*
X003203Y021394D01*
X003047Y021238D01*
X002695Y021590D01*
X002851Y021746D01*
G37*
G36*
X003074Y021969D02*
X003426Y021617D01*
X003270Y021461D01*
X002918Y021813D01*
X003074Y021969D01*
G37*
G36*
X003296Y022191D02*
X003648Y021839D01*
X003492Y021683D01*
X003140Y022035D01*
X003296Y022191D01*
G37*
G36*
X001960Y020855D02*
X002312Y020503D01*
X002156Y020347D01*
X001804Y020699D01*
X001960Y020855D01*
G37*
G36*
X001738Y020632D02*
X002090Y020280D01*
X001934Y020124D01*
X001582Y020476D01*
X001738Y020632D01*
G37*
D18*
G36*
X001934Y019801D02*
X002090Y019645D01*
X001738Y019293D01*
X001582Y019449D01*
X001934Y019801D01*
G37*
G36*
X002156Y019579D02*
X002312Y019423D01*
X001960Y019071D01*
X001804Y019227D01*
X002156Y019579D01*
G37*
G36*
X002379Y019356D02*
X002535Y019200D01*
X002183Y018848D01*
X002027Y019004D01*
X002379Y019356D01*
G37*
G36*
X002602Y019133D02*
X002758Y018977D01*
X002406Y018625D01*
X002250Y018781D01*
X002602Y019133D01*
G37*
G36*
X002824Y018910D02*
X002980Y018754D01*
X002628Y018402D01*
X002472Y018558D01*
X002824Y018910D01*
G37*
G36*
X003047Y018688D02*
X003203Y018532D01*
X002851Y018180D01*
X002695Y018336D01*
X003047Y018688D01*
G37*
G36*
X003270Y018465D02*
X003426Y018309D01*
X003074Y017957D01*
X002918Y018113D01*
X003270Y018465D01*
G37*
G36*
X003492Y018242D02*
X003648Y018086D01*
X003296Y017734D01*
X003140Y017890D01*
X003492Y018242D01*
G37*
G36*
X005437Y021078D02*
X005593Y020922D01*
X005241Y020570D01*
X005085Y020726D01*
X005437Y021078D01*
G37*
G36*
X005214Y021300D02*
X005370Y021144D01*
X005018Y020792D01*
X004862Y020948D01*
X005214Y021300D01*
G37*
G36*
X004992Y021523D02*
X005148Y021367D01*
X004796Y021015D01*
X004640Y021171D01*
X004992Y021523D01*
G37*
G36*
X004769Y021746D02*
X004925Y021590D01*
X004573Y021238D01*
X004417Y021394D01*
X004769Y021746D01*
G37*
G36*
X004546Y021969D02*
X004702Y021813D01*
X004350Y021461D01*
X004194Y021617D01*
X004546Y021969D01*
G37*
G36*
X004324Y022191D02*
X004480Y022035D01*
X004128Y021683D01*
X003972Y021839D01*
X004324Y022191D01*
G37*
G36*
X005660Y020855D02*
X005816Y020699D01*
X005464Y020347D01*
X005308Y020503D01*
X005660Y020855D01*
G37*
G36*
X005882Y020632D02*
X006038Y020476D01*
X005686Y020124D01*
X005530Y020280D01*
X005882Y020632D01*
G37*
D19*
X003940Y003447D03*
X003625Y003447D03*
X003310Y003447D03*
X002995Y003447D03*
X002680Y003447D03*
D20*
X001538Y001282D03*
X001538Y003447D03*
X005082Y003447D03*
X005082Y001282D03*
D21*
X004749Y004799D03*
X004749Y005055D03*
X004749Y005311D03*
X004749Y005567D03*
X004749Y005823D03*
X004749Y006079D03*
X004749Y006335D03*
X004749Y006591D03*
X004749Y006847D03*
X004749Y007103D03*
X004749Y007359D03*
X004749Y007614D03*
X004749Y007870D03*
X004749Y008126D03*
X001871Y008126D03*
X001871Y007870D03*
X001871Y007614D03*
X001871Y007359D03*
X001871Y007103D03*
X001871Y006847D03*
X001871Y006591D03*
X001871Y006335D03*
X001871Y006079D03*
X001871Y005823D03*
X001871Y005567D03*
X001871Y005311D03*
X001871Y005055D03*
X001871Y004799D03*
D22*
X013034Y013872D03*
X013586Y013872D03*
X013586Y015053D03*
X013034Y015053D03*
D23*
X012810Y010038D03*
X012810Y006888D03*
D24*
X012574Y019207D03*
X012574Y019719D03*
M02*
