G75*
G70*
%OFA0B0*%
%FSLAX24Y24*%
%IPPOS*%
%LPD*%
%AMOC8*
5,1,8,0,0,1.08239X$1,22.5*
%
%ADD10C,0.0230*%
%ADD11C,0.0820*%
%ADD12R,0.0330X0.0580*%
%ADD13C,0.0395*%
%ADD14R,0.0820X0.0820*%
D10*
X006560Y000623D03*
X006560Y000943D03*
X006560Y001243D03*
X006560Y001543D03*
X006550Y001853D03*
X006560Y002173D03*
X006560Y002493D03*
X006560Y002793D03*
X006970Y004463D03*
X007290Y004463D03*
X007590Y004463D03*
X007890Y004463D03*
X008200Y004473D03*
X008520Y004463D03*
X008840Y004463D03*
X009140Y004463D03*
X009560Y007073D03*
X009560Y007323D03*
X009560Y007573D03*
X009560Y007853D03*
X009560Y008133D03*
X009560Y008463D03*
X009560Y008793D03*
X009560Y009073D03*
X009560Y009323D03*
X009560Y009573D03*
X009560Y009823D03*
X009560Y013473D03*
X009560Y013803D03*
X009560Y014133D03*
X009560Y014463D03*
X009560Y014793D03*
X009560Y015123D03*
X009560Y015453D03*
X007560Y016473D03*
X007560Y016803D03*
X007560Y017133D03*
X007560Y017463D03*
X007560Y017793D03*
X007560Y018123D03*
X007560Y018453D03*
X007560Y020973D03*
X007560Y021303D03*
X007560Y021633D03*
X007560Y021963D03*
X007560Y022293D03*
X007560Y022623D03*
X007560Y022953D03*
X009560Y023473D03*
X009570Y023243D03*
X009570Y022993D03*
X009560Y023803D03*
X009560Y024143D03*
X009560Y024473D03*
X009560Y024733D03*
X009570Y024953D03*
X009550Y020453D03*
X009550Y020223D03*
X009560Y019963D03*
X009560Y019633D03*
X009560Y019293D03*
X009560Y018963D03*
X009560Y018713D03*
X009560Y018493D03*
X004970Y012213D03*
X004630Y012213D03*
X004300Y012213D03*
X003970Y012213D03*
X003640Y012213D03*
X003310Y012213D03*
X002980Y012213D03*
X002650Y012213D03*
X002380Y012193D03*
X002110Y012193D03*
X002150Y010713D03*
X002480Y010713D03*
X002810Y010713D03*
X003140Y010713D03*
X003470Y010713D03*
X003800Y010713D03*
X004130Y010713D03*
X004470Y010713D03*
X014910Y011093D03*
X015170Y011093D03*
X015430Y011093D03*
X015680Y011093D03*
X015700Y012323D03*
X015450Y012323D03*
X015190Y012323D03*
X014930Y012323D03*
X014910Y016593D03*
X015170Y016593D03*
X015430Y016593D03*
X015680Y016593D03*
X015700Y017823D03*
X015450Y017823D03*
X015190Y017823D03*
X014930Y017823D03*
X014910Y021093D03*
X015170Y021093D03*
X015430Y021093D03*
X015680Y021093D03*
X015700Y022323D03*
X015450Y022323D03*
X015190Y022323D03*
X014930Y022323D03*
X014930Y005823D03*
X015190Y005823D03*
X015450Y005823D03*
X015700Y005823D03*
X015680Y004593D03*
X015430Y004593D03*
X015170Y004593D03*
X014910Y004593D03*
D11*
X015310Y003963D03*
X015310Y002963D03*
X015310Y001963D03*
X015310Y000963D03*
X014310Y000963D03*
X014310Y001963D03*
X014310Y002963D03*
X014310Y003963D03*
X013310Y003963D03*
X013310Y002963D03*
X013310Y001963D03*
X013310Y000963D03*
X012310Y000963D03*
X012310Y001963D03*
X012310Y002963D03*
X012310Y003963D03*
X011310Y003963D03*
X011310Y002963D03*
X011310Y001963D03*
X011310Y000963D03*
X010310Y000963D03*
X010310Y001963D03*
X010310Y002963D03*
X010310Y003963D03*
X009310Y003963D03*
X009310Y002963D03*
X009310Y001963D03*
X009310Y000963D03*
X008310Y000963D03*
X008310Y001963D03*
X008310Y002963D03*
X008310Y003963D03*
X008310Y004963D03*
X008310Y005963D03*
X007310Y005963D03*
X007310Y006963D03*
X007310Y007963D03*
X007310Y008963D03*
X007310Y009963D03*
X005810Y009963D03*
X004810Y009963D03*
X003810Y009963D03*
X002810Y009963D03*
X001810Y009963D03*
X000810Y009963D03*
X001310Y012963D03*
X000810Y013963D03*
X000810Y014963D03*
X000810Y015963D03*
X000810Y016963D03*
X000810Y017963D03*
X000810Y018963D03*
X000810Y019963D03*
X000810Y020963D03*
X000810Y021963D03*
X000810Y022963D03*
X000810Y023963D03*
X000810Y024963D03*
X001960Y018413D03*
X001960Y017413D03*
X002310Y012963D03*
X003310Y012963D03*
X004310Y012963D03*
X005310Y012963D03*
X006310Y012963D03*
X006810Y013963D03*
X006810Y014963D03*
X006810Y015963D03*
X006810Y016963D03*
X006810Y017963D03*
X006810Y018963D03*
X006810Y019963D03*
X006810Y020963D03*
X006810Y021963D03*
X006810Y022963D03*
X006810Y023963D03*
X006810Y024963D03*
X010310Y024963D03*
X010310Y023963D03*
X010310Y022963D03*
X010310Y020463D03*
X010310Y019463D03*
X010310Y018463D03*
X010310Y014963D03*
X010310Y013963D03*
X010310Y012963D03*
X010310Y008963D03*
X010310Y007963D03*
X007310Y004963D03*
X007310Y003963D03*
X007310Y002963D03*
X007310Y001963D03*
X007310Y000963D03*
D12*
X002860Y003463D03*
X003210Y003463D03*
X003560Y003463D03*
D13*
X011275Y009349D03*
X013696Y006927D03*
D14*
X010310Y015963D03*
M02*
