G75*
G70*
%OFA0B0*%
%FSLAX24Y24*%
%IPPOS*%
%LPD*%
%AMOC8*
5,1,8,0,0,1.08239X$1,22.5*
%
%ADD10C,0.0100*%
%ADD11C,0.0060*%
%ADD12C,0.0050*%
%ADD13C,0.0040*%
%ADD14C,0.0080*%
%ADD15C,0.0110*%
%ADD16C,0.0220*%
%ADD17R,0.0180X0.0300*%
%ADD18R,0.0300X0.0180*%
%ADD19C,0.0010*%
D10*
X006380Y018963D02*
X006382Y019004D01*
X006388Y019044D01*
X006397Y019084D01*
X006411Y019123D01*
X006428Y019160D01*
X006448Y019195D01*
X006472Y019229D01*
X006499Y019260D01*
X006528Y019288D01*
X006561Y019313D01*
X006595Y019335D01*
X006631Y019354D01*
X006669Y019369D01*
X006709Y019381D01*
X006749Y019389D01*
X006790Y019393D01*
X006830Y019393D01*
X006871Y019389D01*
X006911Y019381D01*
X006951Y019369D01*
X006989Y019354D01*
X007025Y019335D01*
X007059Y019313D01*
X007092Y019288D01*
X007121Y019260D01*
X007148Y019229D01*
X007172Y019195D01*
X007192Y019160D01*
X007209Y019123D01*
X007223Y019084D01*
X007232Y019044D01*
X007238Y019004D01*
X007240Y018963D01*
X007238Y018922D01*
X007232Y018882D01*
X007223Y018842D01*
X007209Y018803D01*
X007192Y018766D01*
X007172Y018731D01*
X007148Y018697D01*
X007121Y018666D01*
X007092Y018638D01*
X007059Y018613D01*
X007025Y018591D01*
X006989Y018572D01*
X006951Y018557D01*
X006911Y018545D01*
X006871Y018537D01*
X006830Y018533D01*
X006790Y018533D01*
X006749Y018537D01*
X006709Y018545D01*
X006669Y018557D01*
X006631Y018572D01*
X006595Y018591D01*
X006561Y018613D01*
X006528Y018638D01*
X006499Y018666D01*
X006472Y018697D01*
X006448Y018731D01*
X006428Y018766D01*
X006411Y018803D01*
X006397Y018842D01*
X006388Y018882D01*
X006382Y018922D01*
X006380Y018963D01*
X006380Y020963D02*
X006382Y021004D01*
X006388Y021044D01*
X006397Y021084D01*
X006411Y021123D01*
X006428Y021160D01*
X006448Y021195D01*
X006472Y021229D01*
X006499Y021260D01*
X006528Y021288D01*
X006561Y021313D01*
X006595Y021335D01*
X006631Y021354D01*
X006669Y021369D01*
X006709Y021381D01*
X006749Y021389D01*
X006790Y021393D01*
X006830Y021393D01*
X006871Y021389D01*
X006911Y021381D01*
X006951Y021369D01*
X006989Y021354D01*
X007025Y021335D01*
X007059Y021313D01*
X007092Y021288D01*
X007121Y021260D01*
X007148Y021229D01*
X007172Y021195D01*
X007192Y021160D01*
X007209Y021123D01*
X007223Y021084D01*
X007232Y021044D01*
X007238Y021004D01*
X007240Y020963D01*
X007238Y020922D01*
X007232Y020882D01*
X007223Y020842D01*
X007209Y020803D01*
X007192Y020766D01*
X007172Y020731D01*
X007148Y020697D01*
X007121Y020666D01*
X007092Y020638D01*
X007059Y020613D01*
X007025Y020591D01*
X006989Y020572D01*
X006951Y020557D01*
X006911Y020545D01*
X006871Y020537D01*
X006830Y020533D01*
X006790Y020533D01*
X006749Y020537D01*
X006709Y020545D01*
X006669Y020557D01*
X006631Y020572D01*
X006595Y020591D01*
X006561Y020613D01*
X006528Y020638D01*
X006499Y020666D01*
X006472Y020697D01*
X006448Y020731D01*
X006428Y020766D01*
X006411Y020803D01*
X006397Y020842D01*
X006388Y020882D01*
X006382Y020922D01*
X006380Y020963D01*
X006380Y021963D02*
X006382Y022004D01*
X006388Y022044D01*
X006397Y022084D01*
X006411Y022123D01*
X006428Y022160D01*
X006448Y022195D01*
X006472Y022229D01*
X006499Y022260D01*
X006528Y022288D01*
X006561Y022313D01*
X006595Y022335D01*
X006631Y022354D01*
X006669Y022369D01*
X006709Y022381D01*
X006749Y022389D01*
X006790Y022393D01*
X006830Y022393D01*
X006871Y022389D01*
X006911Y022381D01*
X006951Y022369D01*
X006989Y022354D01*
X007025Y022335D01*
X007059Y022313D01*
X007092Y022288D01*
X007121Y022260D01*
X007148Y022229D01*
X007172Y022195D01*
X007192Y022160D01*
X007209Y022123D01*
X007223Y022084D01*
X007232Y022044D01*
X007238Y022004D01*
X007240Y021963D01*
X007238Y021922D01*
X007232Y021882D01*
X007223Y021842D01*
X007209Y021803D01*
X007192Y021766D01*
X007172Y021731D01*
X007148Y021697D01*
X007121Y021666D01*
X007092Y021638D01*
X007059Y021613D01*
X007025Y021591D01*
X006989Y021572D01*
X006951Y021557D01*
X006911Y021545D01*
X006871Y021537D01*
X006830Y021533D01*
X006790Y021533D01*
X006749Y021537D01*
X006709Y021545D01*
X006669Y021557D01*
X006631Y021572D01*
X006595Y021591D01*
X006561Y021613D01*
X006528Y021638D01*
X006499Y021666D01*
X006472Y021697D01*
X006448Y021731D01*
X006428Y021766D01*
X006411Y021803D01*
X006397Y021842D01*
X006388Y021882D01*
X006382Y021922D01*
X006380Y021963D01*
X006380Y024963D02*
X006382Y025004D01*
X006388Y025044D01*
X006397Y025084D01*
X006411Y025123D01*
X006428Y025160D01*
X006448Y025195D01*
X006472Y025229D01*
X006499Y025260D01*
X006528Y025288D01*
X006561Y025313D01*
X006595Y025335D01*
X006631Y025354D01*
X006669Y025369D01*
X006709Y025381D01*
X006749Y025389D01*
X006790Y025393D01*
X006830Y025393D01*
X006871Y025389D01*
X006911Y025381D01*
X006951Y025369D01*
X006989Y025354D01*
X007025Y025335D01*
X007059Y025313D01*
X007092Y025288D01*
X007121Y025260D01*
X007148Y025229D01*
X007172Y025195D01*
X007192Y025160D01*
X007209Y025123D01*
X007223Y025084D01*
X007232Y025044D01*
X007238Y025004D01*
X007240Y024963D01*
X007238Y024922D01*
X007232Y024882D01*
X007223Y024842D01*
X007209Y024803D01*
X007192Y024766D01*
X007172Y024731D01*
X007148Y024697D01*
X007121Y024666D01*
X007092Y024638D01*
X007059Y024613D01*
X007025Y024591D01*
X006989Y024572D01*
X006951Y024557D01*
X006911Y024545D01*
X006871Y024537D01*
X006830Y024533D01*
X006790Y024533D01*
X006749Y024537D01*
X006709Y024545D01*
X006669Y024557D01*
X006631Y024572D01*
X006595Y024591D01*
X006561Y024613D01*
X006528Y024638D01*
X006499Y024666D01*
X006472Y024697D01*
X006448Y024731D01*
X006428Y024766D01*
X006411Y024803D01*
X006397Y024842D01*
X006388Y024882D01*
X006382Y024922D01*
X006380Y024963D01*
X000380Y024963D02*
X000382Y025004D01*
X000388Y025044D01*
X000397Y025084D01*
X000411Y025123D01*
X000428Y025160D01*
X000448Y025195D01*
X000472Y025229D01*
X000499Y025260D01*
X000528Y025288D01*
X000561Y025313D01*
X000595Y025335D01*
X000631Y025354D01*
X000669Y025369D01*
X000709Y025381D01*
X000749Y025389D01*
X000790Y025393D01*
X000830Y025393D01*
X000871Y025389D01*
X000911Y025381D01*
X000951Y025369D01*
X000989Y025354D01*
X001025Y025335D01*
X001059Y025313D01*
X001092Y025288D01*
X001121Y025260D01*
X001148Y025229D01*
X001172Y025195D01*
X001192Y025160D01*
X001209Y025123D01*
X001223Y025084D01*
X001232Y025044D01*
X001238Y025004D01*
X001240Y024963D01*
X001238Y024922D01*
X001232Y024882D01*
X001223Y024842D01*
X001209Y024803D01*
X001192Y024766D01*
X001172Y024731D01*
X001148Y024697D01*
X001121Y024666D01*
X001092Y024638D01*
X001059Y024613D01*
X001025Y024591D01*
X000989Y024572D01*
X000951Y024557D01*
X000911Y024545D01*
X000871Y024537D01*
X000830Y024533D01*
X000790Y024533D01*
X000749Y024537D01*
X000709Y024545D01*
X000669Y024557D01*
X000631Y024572D01*
X000595Y024591D01*
X000561Y024613D01*
X000528Y024638D01*
X000499Y024666D01*
X000472Y024697D01*
X000448Y024731D01*
X000428Y024766D01*
X000411Y024803D01*
X000397Y024842D01*
X000388Y024882D01*
X000382Y024922D01*
X000380Y024963D01*
X000380Y023963D02*
X000382Y024004D01*
X000388Y024044D01*
X000397Y024084D01*
X000411Y024123D01*
X000428Y024160D01*
X000448Y024195D01*
X000472Y024229D01*
X000499Y024260D01*
X000528Y024288D01*
X000561Y024313D01*
X000595Y024335D01*
X000631Y024354D01*
X000669Y024369D01*
X000709Y024381D01*
X000749Y024389D01*
X000790Y024393D01*
X000830Y024393D01*
X000871Y024389D01*
X000911Y024381D01*
X000951Y024369D01*
X000989Y024354D01*
X001025Y024335D01*
X001059Y024313D01*
X001092Y024288D01*
X001121Y024260D01*
X001148Y024229D01*
X001172Y024195D01*
X001192Y024160D01*
X001209Y024123D01*
X001223Y024084D01*
X001232Y024044D01*
X001238Y024004D01*
X001240Y023963D01*
X001238Y023922D01*
X001232Y023882D01*
X001223Y023842D01*
X001209Y023803D01*
X001192Y023766D01*
X001172Y023731D01*
X001148Y023697D01*
X001121Y023666D01*
X001092Y023638D01*
X001059Y023613D01*
X001025Y023591D01*
X000989Y023572D01*
X000951Y023557D01*
X000911Y023545D01*
X000871Y023537D01*
X000830Y023533D01*
X000790Y023533D01*
X000749Y023537D01*
X000709Y023545D01*
X000669Y023557D01*
X000631Y023572D01*
X000595Y023591D01*
X000561Y023613D01*
X000528Y023638D01*
X000499Y023666D01*
X000472Y023697D01*
X000448Y023731D01*
X000428Y023766D01*
X000411Y023803D01*
X000397Y023842D01*
X000388Y023882D01*
X000382Y023922D01*
X000380Y023963D01*
D11*
X000580Y001976D02*
X000750Y001976D01*
X000693Y002090D01*
X000693Y002146D01*
X000750Y002203D01*
X000863Y002203D01*
X000920Y002146D01*
X000920Y002033D01*
X000863Y001976D01*
X000580Y001976D02*
X000580Y002203D01*
X000580Y002345D02*
X000807Y002345D01*
X000920Y002458D01*
X000807Y002571D01*
X000580Y002571D01*
X002158Y004416D02*
X002158Y008510D01*
X004462Y008510D01*
X004462Y004416D01*
X002158Y004416D01*
X002361Y008126D02*
X002363Y008152D01*
X002369Y008178D01*
X002378Y008203D01*
X002391Y008226D01*
X002407Y008247D01*
X002426Y008265D01*
X002448Y008281D01*
X002471Y008293D01*
X002496Y008301D01*
X002522Y008306D01*
X002549Y008307D01*
X002575Y008304D01*
X002600Y008297D01*
X002625Y008287D01*
X002647Y008273D01*
X002668Y008256D01*
X002685Y008237D01*
X002700Y008215D01*
X002711Y008191D01*
X002719Y008165D01*
X002723Y008139D01*
X002723Y008113D01*
X002719Y008087D01*
X002711Y008061D01*
X002700Y008037D01*
X002685Y008015D01*
X002668Y007996D01*
X002647Y007979D01*
X002625Y007965D01*
X002600Y007955D01*
X002575Y007948D01*
X002549Y007945D01*
X002522Y007946D01*
X002496Y007951D01*
X002471Y007959D01*
X002448Y007971D01*
X002426Y007987D01*
X002407Y008005D01*
X002391Y008026D01*
X002378Y008049D01*
X002369Y008074D01*
X002363Y008100D01*
X002361Y008126D01*
X005250Y007131D02*
X005590Y006905D01*
X005590Y007131D02*
X005250Y006905D01*
X005250Y006763D02*
X005250Y006536D01*
X005250Y006650D02*
X005590Y006650D01*
X005600Y006061D02*
X005260Y005835D01*
X005316Y005693D02*
X005430Y005693D01*
X005487Y005636D01*
X005487Y005466D01*
X005600Y005466D02*
X005260Y005466D01*
X005260Y005636D01*
X005316Y005693D01*
X005487Y005580D02*
X005600Y005693D01*
X005600Y005835D02*
X005260Y006061D01*
X010000Y007030D02*
X010057Y006973D01*
X010170Y006973D01*
X010227Y007030D01*
X010227Y007143D01*
X010113Y007143D01*
X010000Y007256D02*
X010000Y007030D01*
X010000Y007256D02*
X010057Y007313D01*
X010170Y007313D01*
X010227Y007256D01*
X010368Y007313D02*
X010595Y006973D01*
X010595Y007313D01*
X010737Y007313D02*
X010737Y006973D01*
X010907Y006973D01*
X010963Y007030D01*
X010963Y007256D01*
X010907Y007313D01*
X010737Y007313D01*
X010368Y007313D02*
X010368Y006973D01*
X010437Y009593D02*
X010210Y009593D01*
X010437Y009820D01*
X010437Y009876D01*
X010380Y009933D01*
X010267Y009933D01*
X010210Y009876D01*
X011033Y012793D02*
X011147Y012906D01*
X011147Y013133D01*
X011288Y013076D02*
X011288Y012850D01*
X011345Y012793D01*
X011458Y012793D01*
X011515Y012850D01*
X011657Y012850D02*
X011713Y012793D01*
X011827Y012793D01*
X011883Y012850D01*
X011883Y013076D02*
X011827Y013133D01*
X011713Y013133D01*
X011657Y013076D01*
X011657Y012850D01*
X011515Y013076D02*
X011458Y013133D01*
X011345Y013133D01*
X011288Y013076D01*
X011033Y012793D02*
X010920Y012906D01*
X010920Y013133D01*
X010977Y013793D02*
X010920Y013850D01*
X010977Y013793D02*
X011090Y013793D01*
X011147Y013850D01*
X011147Y013906D01*
X011090Y013963D01*
X011033Y013963D01*
X011090Y013963D02*
X011147Y014020D01*
X011147Y014076D01*
X011090Y014133D01*
X010977Y014133D01*
X010920Y014076D01*
X011288Y013963D02*
X011515Y013963D01*
X011657Y013906D02*
X011827Y013906D01*
X011883Y013963D01*
X011883Y014076D01*
X011827Y014133D01*
X011657Y014133D01*
X011657Y013793D01*
X011770Y013906D02*
X011883Y013793D01*
X011827Y014793D02*
X011657Y014793D01*
X011657Y015133D01*
X011827Y015133D01*
X011883Y015076D01*
X011883Y015020D01*
X011827Y014963D01*
X011657Y014963D01*
X011515Y014963D02*
X011288Y014963D01*
X011147Y014906D02*
X011090Y014963D01*
X010920Y014963D01*
X010920Y014850D01*
X010977Y014793D01*
X011090Y014793D01*
X011147Y014850D01*
X011147Y014906D01*
X011033Y015076D02*
X010920Y014963D01*
X011033Y015076D02*
X011147Y015133D01*
X011090Y015793D02*
X010977Y015793D01*
X010920Y015850D01*
X010920Y015963D02*
X011033Y016020D01*
X011090Y016020D01*
X011147Y015963D01*
X011147Y015850D01*
X011090Y015793D01*
X010920Y015963D02*
X010920Y016133D01*
X011147Y016133D01*
X011288Y015963D02*
X011515Y015963D01*
X011657Y016076D02*
X011657Y015850D01*
X011713Y015793D01*
X011827Y015793D01*
X011883Y015850D01*
X011883Y015963D01*
X011770Y015963D01*
X011657Y016076D02*
X011713Y016133D01*
X011827Y016133D01*
X011883Y016076D01*
X011827Y014963D02*
X011883Y014906D01*
X011883Y014850D01*
X011827Y014793D01*
X011827Y018303D02*
X011883Y018360D01*
X011827Y018303D02*
X011713Y018303D01*
X011657Y018360D01*
X011657Y018586D01*
X011713Y018643D01*
X011827Y018643D01*
X011883Y018586D01*
X011515Y018586D02*
X011458Y018643D01*
X011345Y018643D01*
X011288Y018586D01*
X011288Y018360D01*
X011345Y018303D01*
X011458Y018303D01*
X011515Y018360D01*
X011147Y018416D02*
X011033Y018303D01*
X010920Y018416D01*
X010920Y018643D01*
X011147Y018643D02*
X011147Y018416D01*
X011147Y019303D02*
X011147Y019530D01*
X011033Y019643D01*
X010920Y019530D01*
X010920Y019303D01*
X010920Y019473D02*
X011147Y019473D01*
X011288Y019586D02*
X011345Y019643D01*
X011458Y019643D01*
X011515Y019586D01*
X011288Y019360D01*
X011345Y019303D01*
X011458Y019303D01*
X011515Y019360D01*
X011515Y019586D01*
X011288Y019586D02*
X011288Y019360D01*
X011288Y020303D02*
X011288Y020643D01*
X011515Y020303D01*
X011515Y020643D01*
X011657Y020643D02*
X011827Y020643D01*
X011883Y020586D01*
X011883Y020360D01*
X011827Y020303D01*
X011657Y020303D01*
X011657Y020643D01*
X011147Y020586D02*
X011090Y020643D01*
X010977Y020643D01*
X010920Y020586D01*
X010920Y020360D01*
X010977Y020303D01*
X011090Y020303D01*
X011147Y020360D01*
X011147Y020473D01*
X011033Y020473D01*
X010977Y022803D02*
X011090Y022803D01*
X011147Y022860D01*
X011147Y022973D01*
X011033Y022973D01*
X010920Y023086D02*
X010920Y022860D01*
X010977Y022803D01*
X010920Y023086D02*
X010977Y023143D01*
X011090Y023143D01*
X011147Y023086D01*
X011288Y023143D02*
X011288Y022803D01*
X011515Y022803D02*
X011288Y023143D01*
X011515Y023143D02*
X011515Y022803D01*
X011657Y022803D02*
X011827Y022803D01*
X011883Y022860D01*
X011883Y023086D01*
X011827Y023143D01*
X011657Y023143D01*
X011657Y022803D01*
X011713Y023803D02*
X011657Y023860D01*
X011657Y024086D01*
X011713Y024143D01*
X011827Y024143D01*
X011883Y024086D01*
X011883Y023860D02*
X011827Y023803D01*
X011713Y023803D01*
X011515Y023860D02*
X011458Y023803D01*
X011345Y023803D01*
X011288Y023860D01*
X011288Y024086D01*
X011345Y024143D01*
X011458Y024143D01*
X011515Y024086D01*
X011147Y024143D02*
X011147Y023916D01*
X011033Y023803D01*
X010920Y023916D01*
X010920Y024143D01*
X010920Y024803D02*
X010920Y024860D01*
X011147Y025086D01*
X011147Y025143D01*
X010920Y025143D01*
X005762Y019963D02*
X003909Y018110D01*
X003711Y018110D01*
X001858Y019963D01*
X003810Y021914D01*
X005762Y019963D01*
X004748Y022500D02*
X004679Y022569D01*
X004679Y022844D01*
X004610Y022776D02*
X004748Y022776D01*
X004450Y022707D02*
X004450Y022638D01*
X004175Y022638D01*
X004175Y022569D02*
X004175Y022707D01*
X004244Y022776D01*
X004381Y022776D01*
X004450Y022707D01*
X004381Y022500D02*
X004244Y022500D01*
X004175Y022569D01*
X004015Y022569D02*
X003946Y022638D01*
X003809Y022638D01*
X003740Y022707D01*
X003809Y022776D01*
X004015Y022776D01*
X004015Y022569D02*
X003946Y022500D01*
X003740Y022500D01*
X003580Y022638D02*
X003580Y022707D01*
X003511Y022776D01*
X003374Y022776D01*
X003305Y022707D01*
X003305Y022569D01*
X003374Y022500D01*
X003511Y022500D01*
X003580Y022638D02*
X003305Y022638D01*
X003145Y022707D02*
X003076Y022638D01*
X002870Y022638D01*
X003008Y022638D02*
X003145Y022500D01*
X003145Y022707D02*
X003145Y022844D01*
X003076Y022913D01*
X002870Y022913D01*
X002870Y022500D01*
X003669Y018435D02*
X003671Y018458D01*
X003677Y018481D01*
X003686Y018502D01*
X003699Y018522D01*
X003715Y018539D01*
X003733Y018553D01*
X003753Y018564D01*
X003775Y018572D01*
X003798Y018576D01*
X003822Y018576D01*
X003845Y018572D01*
X003867Y018564D01*
X003887Y018553D01*
X003905Y018539D01*
X003921Y018522D01*
X003934Y018502D01*
X003943Y018481D01*
X003949Y018458D01*
X003951Y018435D01*
X003949Y018412D01*
X003943Y018389D01*
X003934Y018368D01*
X003921Y018348D01*
X003905Y018331D01*
X003887Y018317D01*
X003867Y018306D01*
X003845Y018298D01*
X003822Y018294D01*
X003798Y018294D01*
X003775Y018298D01*
X003753Y018306D01*
X003733Y018317D01*
X003715Y018331D01*
X003699Y018348D01*
X003686Y018368D01*
X003677Y018389D01*
X003671Y018412D01*
X003669Y018435D01*
X004377Y014650D02*
X004377Y014593D01*
X004377Y014480D02*
X004377Y014253D01*
X004321Y014253D02*
X004434Y014253D01*
X004566Y014253D02*
X004566Y014480D01*
X004736Y014480D01*
X004793Y014423D01*
X004793Y014253D01*
X004934Y014253D02*
X005048Y014253D01*
X004991Y014253D02*
X004991Y014480D01*
X004934Y014480D01*
X004991Y014593D02*
X004991Y014650D01*
X004377Y014480D02*
X004321Y014480D01*
X004179Y014593D02*
X004179Y014253D01*
X003952Y014253D02*
X003952Y014593D01*
X004066Y014480D01*
X004179Y014593D01*
X003443Y014423D02*
X003386Y014480D01*
X003272Y014480D01*
X003216Y014423D01*
X003216Y014310D01*
X003272Y014253D01*
X003386Y014253D01*
X003443Y014310D01*
X003443Y014423D01*
X003079Y014480D02*
X003022Y014480D01*
X002909Y014366D01*
X002909Y014253D02*
X002909Y014480D01*
X002767Y014536D02*
X002767Y014423D01*
X002711Y014366D01*
X002540Y014366D01*
X002540Y014253D02*
X002540Y014593D01*
X002711Y014593D01*
X002767Y014536D01*
D12*
X002530Y015443D02*
X001730Y015443D01*
X001635Y019551D02*
X001401Y019551D01*
X001285Y019668D01*
X001401Y019785D01*
X001635Y019785D01*
X001635Y019920D02*
X001635Y020153D01*
X001635Y020036D02*
X001285Y020036D01*
X001401Y019920D01*
X001460Y019785D02*
X001460Y019551D01*
X001460Y020551D02*
X001460Y020785D01*
X001401Y020785D02*
X001635Y020785D01*
X001577Y020920D02*
X001343Y021153D01*
X001577Y021153D01*
X001635Y021095D01*
X001635Y020978D01*
X001577Y020920D01*
X001343Y020920D01*
X001285Y020978D01*
X001285Y021095D01*
X001343Y021153D01*
X001381Y021661D02*
X001265Y021778D01*
X001615Y021778D01*
X001615Y021661D02*
X001615Y021895D01*
X001557Y022030D02*
X001615Y022088D01*
X001615Y022205D01*
X001557Y022263D01*
X001498Y022263D01*
X001440Y022205D01*
X001440Y022146D01*
X001440Y022205D02*
X001381Y022263D01*
X001323Y022263D01*
X001265Y022205D01*
X001265Y022088D01*
X001323Y022030D01*
X001381Y022661D02*
X001265Y022778D01*
X001615Y022778D01*
X001615Y022661D02*
X001615Y022895D01*
X001615Y023030D02*
X001381Y023263D01*
X001323Y023263D01*
X001265Y023205D01*
X001265Y023088D01*
X001323Y023030D01*
X001615Y023030D02*
X001615Y023263D01*
X001625Y023641D02*
X001625Y023875D01*
X001625Y023758D02*
X001275Y023758D01*
X001391Y023641D01*
X001391Y024010D02*
X001275Y024126D01*
X001625Y024126D01*
X001625Y024010D02*
X001625Y024243D01*
X001655Y024671D02*
X001655Y024905D01*
X001655Y024788D02*
X001305Y024788D01*
X001421Y024671D01*
X001363Y025040D02*
X001305Y025098D01*
X001305Y025215D01*
X001363Y025273D01*
X001597Y025040D01*
X001655Y025098D01*
X001655Y025215D01*
X001597Y025273D01*
X001363Y025273D01*
X001363Y025040D02*
X001597Y025040D01*
X001401Y020785D02*
X001285Y020668D01*
X001401Y020551D01*
X001635Y020551D01*
X005060Y015463D02*
X005860Y015463D01*
X006130Y017883D02*
X006085Y017928D01*
X006085Y018018D01*
X006130Y018063D01*
X006175Y018063D01*
X006355Y017883D01*
X006355Y018063D01*
X006230Y018873D02*
X006275Y018918D01*
X006275Y019008D01*
X006230Y019053D01*
X006185Y019053D01*
X006140Y019008D01*
X006140Y018963D01*
X006140Y019008D02*
X006095Y019053D01*
X006050Y019053D01*
X006005Y019008D01*
X006005Y018918D01*
X006050Y018873D01*
X006160Y019770D02*
X006160Y020003D01*
X006335Y019945D02*
X005985Y019945D01*
X006160Y019770D01*
X006217Y020830D02*
X006275Y020888D01*
X006275Y021005D01*
X006217Y021063D01*
X006100Y021063D01*
X006041Y021005D01*
X006041Y020946D01*
X006100Y020830D01*
X005925Y020830D01*
X005925Y021063D01*
X006100Y021810D02*
X006100Y021985D01*
X006158Y022043D01*
X006217Y022043D01*
X006275Y021985D01*
X006275Y021868D01*
X006217Y021810D01*
X006100Y021810D01*
X005983Y021926D01*
X005925Y022043D01*
X005995Y022830D02*
X005995Y023063D01*
X006053Y023063D01*
X006287Y022830D01*
X006345Y022830D01*
X006267Y023850D02*
X006208Y023850D01*
X006150Y023908D01*
X006150Y024025D01*
X006208Y024083D01*
X006267Y024083D01*
X006325Y024025D01*
X006325Y023908D01*
X006267Y023850D01*
X006150Y023908D02*
X006091Y023850D01*
X006033Y023850D01*
X005975Y023908D01*
X005975Y024025D01*
X006033Y024083D01*
X006091Y024083D01*
X006150Y024025D01*
X006217Y024850D02*
X006275Y024908D01*
X006275Y025025D01*
X006217Y025083D01*
X005983Y025083D01*
X005925Y025025D01*
X005925Y024908D01*
X005983Y024850D01*
X006041Y024850D01*
X006100Y024908D01*
X006100Y025083D01*
X012527Y019494D02*
X012527Y019435D01*
X012920Y019073D02*
X014097Y019073D01*
X014097Y019164D01*
X014097Y019762D02*
X014097Y019845D01*
X012932Y019845D01*
X006159Y009358D02*
X006024Y009358D01*
X006024Y009088D01*
X006159Y009088D01*
X006204Y009133D01*
X006204Y009313D01*
X006159Y009358D01*
X005910Y009358D02*
X005910Y009088D01*
X005730Y009358D01*
X005730Y009088D01*
X005730Y009008D02*
X005730Y008738D01*
X005910Y008738D01*
X006024Y008738D02*
X006024Y009008D01*
X006069Y008873D02*
X006204Y008738D01*
X006024Y008828D02*
X006204Y009008D01*
X005615Y008963D02*
X005615Y008918D01*
X005570Y008873D01*
X005435Y008873D01*
X005435Y009008D02*
X005570Y009008D01*
X005615Y008963D01*
X005570Y008873D02*
X005615Y008828D01*
X005615Y008783D01*
X005570Y008738D01*
X005435Y008738D01*
X005435Y009008D01*
X005480Y009088D02*
X005570Y009088D01*
X005615Y009133D01*
X005615Y009223D01*
X005525Y009223D01*
X005435Y009313D02*
X005435Y009133D01*
X005480Y009088D01*
X005435Y009313D02*
X005480Y009358D01*
X005570Y009358D01*
X005615Y009313D01*
X005204Y009323D02*
X005159Y009368D01*
X005069Y009368D01*
X005024Y009323D01*
X005024Y009278D01*
X005069Y009233D01*
X005159Y009233D01*
X005204Y009188D01*
X005204Y009143D01*
X005159Y009098D01*
X005069Y009098D01*
X005024Y009143D01*
X004910Y009368D02*
X004730Y009368D01*
X004820Y009368D02*
X004820Y009098D01*
X004615Y009143D02*
X004570Y009098D01*
X004480Y009098D01*
X004435Y009143D01*
X004435Y009323D01*
X004480Y009368D01*
X004570Y009368D01*
X004615Y009323D01*
X004194Y009313D02*
X004149Y009358D01*
X004059Y009358D01*
X004014Y009313D01*
X004014Y009133D01*
X004059Y009088D01*
X004149Y009088D01*
X004194Y009133D01*
X003900Y009133D02*
X003855Y009088D01*
X003765Y009088D01*
X003720Y009133D01*
X003720Y009313D01*
X003765Y009358D01*
X003855Y009358D01*
X003900Y009313D01*
X003605Y009358D02*
X003605Y009178D01*
X003515Y009088D01*
X003425Y009178D01*
X003425Y009358D01*
X003184Y009313D02*
X003184Y009133D01*
X003139Y009088D01*
X003049Y009088D01*
X003004Y009133D01*
X003004Y009313D01*
X003049Y009358D01*
X003139Y009358D01*
X003184Y009313D01*
X002890Y009358D02*
X002710Y009088D01*
X002890Y009088D02*
X002710Y009358D01*
X002595Y009358D02*
X002415Y009358D01*
X002505Y009358D02*
X002505Y009088D01*
X002144Y009088D02*
X002054Y009088D01*
X002099Y009088D02*
X002099Y009358D01*
X002054Y009358D02*
X002144Y009358D01*
X001940Y009358D02*
X001760Y009088D01*
X001645Y009088D02*
X001555Y009178D01*
X001600Y009178D02*
X001465Y009178D01*
X001465Y009088D02*
X001465Y009358D01*
X001600Y009358D01*
X001645Y009313D01*
X001645Y009223D01*
X001600Y009178D01*
X001760Y009358D02*
X001940Y009088D01*
X001204Y009088D02*
X001114Y009178D01*
X001159Y009178D02*
X001024Y009178D01*
X001024Y009088D02*
X001024Y009358D01*
X001159Y009358D01*
X001204Y009313D01*
X001204Y009223D01*
X001159Y009178D01*
X001204Y009008D02*
X001204Y008738D01*
X001024Y009008D01*
X001024Y008738D01*
X000910Y008738D02*
X000820Y008828D01*
X000865Y008828D02*
X000730Y008828D01*
X000730Y008738D02*
X000730Y009008D01*
X000865Y009008D01*
X000910Y008963D01*
X000910Y008873D01*
X000865Y008828D01*
X000820Y009088D02*
X000820Y009358D01*
X000730Y009358D02*
X000910Y009358D01*
X000615Y009313D02*
X000615Y009133D01*
X000570Y009088D01*
X000435Y009088D01*
X000435Y009358D01*
X000570Y009358D01*
X000615Y009313D01*
X000570Y009008D02*
X000480Y009008D01*
X000435Y008963D01*
X000435Y008783D01*
X000480Y008738D01*
X000570Y008738D01*
X000615Y008783D01*
X000615Y008873D01*
X000525Y008873D01*
X000615Y008963D02*
X000570Y009008D01*
X000570Y005133D02*
X001370Y005133D01*
X005680Y003252D02*
X005725Y003252D01*
X005815Y003252D02*
X005995Y003252D01*
X005995Y003207D02*
X005995Y003297D01*
X005950Y003403D02*
X005995Y003448D01*
X005995Y003583D01*
X005815Y003583D02*
X005815Y003448D01*
X005860Y003403D01*
X005950Y003403D01*
X005815Y003252D02*
X005815Y003207D01*
X005815Y003092D02*
X005815Y002957D01*
X005860Y002912D01*
X005905Y002957D01*
X005905Y003047D01*
X005950Y003092D01*
X005995Y003047D01*
X005995Y002912D01*
X005995Y002798D02*
X005995Y002663D01*
X005950Y002618D01*
X005905Y002663D01*
X005905Y002798D01*
X005860Y002798D02*
X005995Y002798D01*
X005860Y002798D02*
X005815Y002753D01*
X005815Y002663D01*
X005815Y002503D02*
X005860Y002458D01*
X005860Y002323D01*
X005860Y002458D02*
X005905Y002503D01*
X005950Y002503D01*
X005995Y002458D01*
X005995Y002323D01*
X005725Y002323D01*
X005725Y002458D01*
X005770Y002503D01*
X005815Y002503D01*
X005725Y001922D02*
X005725Y001832D01*
X005725Y001877D02*
X005995Y001877D01*
X005995Y001832D02*
X005995Y001922D01*
X005950Y001717D02*
X005770Y001717D01*
X005725Y001672D01*
X005725Y001537D01*
X005995Y001537D01*
X005995Y001672D01*
X005950Y001717D01*
X005725Y001423D02*
X005725Y001242D01*
X005725Y001333D02*
X005995Y001333D01*
X005860Y001038D02*
X005860Y000948D01*
X005995Y000948D02*
X005725Y000948D01*
X005725Y001128D01*
D13*
X006830Y012599D02*
X006830Y012739D01*
X006876Y012786D01*
X006923Y012786D01*
X006970Y012739D01*
X006970Y012599D01*
X006970Y012739D02*
X007017Y012786D01*
X007063Y012786D01*
X007110Y012739D01*
X007110Y012599D01*
X006830Y012599D01*
X006830Y012894D02*
X007110Y012894D01*
X007110Y013080D01*
X007110Y013188D02*
X006830Y013188D01*
X006970Y013235D02*
X007110Y013375D01*
X007017Y013188D02*
X006830Y013375D01*
X006350Y013622D02*
X006070Y013622D01*
X006070Y013529D02*
X006070Y013716D01*
X006070Y013824D02*
X006350Y014010D01*
X006303Y014118D02*
X006350Y014165D01*
X006350Y014258D01*
X006303Y014305D01*
X006116Y014305D01*
X006070Y014258D01*
X006070Y014165D01*
X006116Y014118D01*
X006303Y014118D01*
X006070Y014010D02*
X006350Y013824D01*
X006360Y014637D02*
X006080Y014637D01*
X006080Y014777D01*
X006126Y014824D01*
X006220Y014824D01*
X006267Y014777D01*
X006267Y014637D01*
X006267Y014731D02*
X006360Y014824D01*
X006360Y014932D02*
X006080Y015119D01*
X006080Y015226D02*
X006080Y015320D01*
X006080Y015273D02*
X006360Y015273D01*
X006360Y015226D02*
X006360Y015320D01*
X006360Y015119D02*
X006080Y014932D01*
X006070Y015609D02*
X006070Y015749D01*
X006116Y015796D01*
X006210Y015796D01*
X006257Y015749D01*
X006257Y015609D01*
X006350Y015609D02*
X006070Y015609D01*
X006257Y015702D02*
X006350Y015796D01*
X006303Y015904D02*
X006350Y015950D01*
X006350Y016044D01*
X006303Y016090D01*
X006257Y016090D01*
X006210Y016044D01*
X006210Y015950D01*
X006163Y015904D01*
X006116Y015904D01*
X006070Y015950D01*
X006070Y016044D01*
X006116Y016090D01*
X006070Y016198D02*
X006070Y016385D01*
X006070Y016292D02*
X006350Y016292D01*
X006323Y016569D02*
X006370Y016616D01*
X006370Y016709D01*
X006323Y016756D01*
X006230Y016756D01*
X006230Y016662D01*
X006323Y016569D02*
X006136Y016569D01*
X006090Y016616D01*
X006090Y016709D01*
X006136Y016756D01*
X006090Y016864D02*
X006370Y017050D01*
X006090Y017050D01*
X006090Y017158D02*
X006090Y017298D01*
X006136Y017345D01*
X006323Y017345D01*
X006370Y017298D01*
X006370Y017158D01*
X006090Y017158D01*
X006090Y016864D02*
X006370Y016864D01*
X005645Y013693D02*
X005505Y013693D01*
X005505Y013413D01*
X005645Y013413D01*
X005692Y013460D01*
X005692Y013646D01*
X005645Y013693D01*
X005398Y013693D02*
X005398Y013413D01*
X005211Y013693D01*
X005211Y013413D01*
X005103Y013460D02*
X005103Y013553D01*
X005009Y013553D01*
X004916Y013646D02*
X004916Y013460D01*
X004963Y013413D01*
X005056Y013413D01*
X005103Y013460D01*
X005103Y013646D02*
X005056Y013693D01*
X004963Y013693D01*
X004916Y013646D01*
X004682Y013646D02*
X004635Y013693D01*
X004542Y013693D01*
X004495Y013646D01*
X004495Y013460D01*
X004542Y013413D01*
X004635Y013413D01*
X004682Y013460D01*
X004388Y013460D02*
X004341Y013413D01*
X004247Y013413D01*
X004201Y013460D01*
X004201Y013646D01*
X004247Y013693D01*
X004341Y013693D01*
X004388Y013646D01*
X004093Y013693D02*
X004093Y013506D01*
X003999Y013413D01*
X003906Y013506D01*
X003906Y013693D01*
X003637Y013693D02*
X003544Y013693D01*
X003590Y013693D02*
X003590Y013413D01*
X003544Y013413D02*
X003637Y013413D01*
X003436Y013413D02*
X003249Y013693D01*
X003141Y013646D02*
X003141Y013553D01*
X003094Y013506D01*
X002954Y013506D01*
X002954Y013413D02*
X002954Y013693D01*
X003094Y013693D01*
X003141Y013646D01*
X003048Y013506D02*
X003141Y013413D01*
X003249Y013413D02*
X003436Y013693D01*
X002662Y013646D02*
X002615Y013693D01*
X002522Y013693D01*
X002475Y013646D01*
X002475Y013460D01*
X002522Y013413D01*
X002615Y013413D01*
X002662Y013460D01*
X002662Y013646D01*
X002368Y013693D02*
X002181Y013413D01*
X002368Y013413D02*
X002181Y013693D01*
X002073Y013693D02*
X001886Y013693D01*
X001979Y013693D02*
X001979Y013413D01*
X001560Y013499D02*
X001280Y013499D01*
X001280Y013639D01*
X001326Y013686D01*
X001420Y013686D01*
X001467Y013639D01*
X001467Y013499D01*
X001467Y013592D02*
X001560Y013686D01*
X001560Y013794D02*
X001373Y013794D01*
X001280Y013887D01*
X001373Y013980D01*
X001560Y013980D01*
X001560Y014088D02*
X001467Y014182D01*
X001560Y014275D01*
X001280Y014275D01*
X001280Y014088D02*
X001560Y014088D01*
X001420Y013980D02*
X001420Y013794D01*
X001326Y014499D02*
X001513Y014499D01*
X001560Y014546D01*
X001560Y014639D01*
X001513Y014686D01*
X001420Y014686D01*
X001420Y014592D01*
X001326Y014499D02*
X001280Y014546D01*
X001280Y014639D01*
X001326Y014686D01*
X001280Y014794D02*
X001560Y014980D01*
X001280Y014980D01*
X001280Y015088D02*
X001280Y015228D01*
X001326Y015275D01*
X001513Y015275D01*
X001560Y015228D01*
X001560Y015088D01*
X001280Y015088D01*
X001280Y014794D02*
X001560Y014794D01*
X001560Y015499D02*
X001280Y015499D01*
X001280Y015639D01*
X001326Y015686D01*
X001420Y015686D01*
X001467Y015639D01*
X001467Y015499D01*
X001467Y015592D02*
X001560Y015686D01*
X001513Y015794D02*
X001560Y015840D01*
X001560Y015934D01*
X001513Y015980D01*
X001467Y015980D01*
X001420Y015934D01*
X001420Y015840D01*
X001373Y015794D01*
X001326Y015794D01*
X001280Y015840D01*
X001280Y015934D01*
X001326Y015980D01*
X001280Y016088D02*
X001280Y016275D01*
X001280Y016182D02*
X001560Y016182D01*
X001467Y016499D02*
X001560Y016592D01*
X001467Y016686D01*
X001280Y016686D01*
X001326Y016794D02*
X001280Y016840D01*
X001280Y016934D01*
X001326Y016980D01*
X001326Y017088D02*
X001280Y017135D01*
X001280Y017228D01*
X001326Y017275D01*
X001326Y017088D02*
X001513Y017088D01*
X001560Y017135D01*
X001560Y017228D01*
X001513Y017275D01*
X001513Y016980D02*
X001560Y016934D01*
X001560Y016840D01*
X001513Y016794D01*
X001326Y016794D01*
X001280Y016499D02*
X001467Y016499D01*
X001420Y017644D02*
X001420Y017830D01*
X001373Y017830D02*
X001560Y017830D01*
X001513Y017938D02*
X001560Y017985D01*
X001560Y018078D01*
X001513Y018125D01*
X001467Y018125D01*
X001420Y018078D01*
X001420Y018032D01*
X001420Y018078D02*
X001373Y018125D01*
X001326Y018125D01*
X001280Y018078D01*
X001280Y017985D01*
X001326Y017938D01*
X001373Y017830D02*
X001280Y017737D01*
X001373Y017644D01*
X001560Y017644D01*
X001560Y018644D02*
X001373Y018644D01*
X001280Y018737D01*
X001373Y018830D01*
X001560Y018830D01*
X001560Y018938D02*
X001373Y019125D01*
X001326Y019125D01*
X001280Y019078D01*
X001280Y018985D01*
X001326Y018938D01*
X001420Y018830D02*
X001420Y018644D01*
X001560Y018938D02*
X001560Y019125D01*
X000810Y013375D02*
X000530Y013375D01*
X000530Y013188D02*
X000810Y013375D01*
X000810Y013188D02*
X000530Y013188D01*
X000576Y013080D02*
X000670Y013080D01*
X000717Y013034D01*
X000717Y012894D01*
X000717Y012987D02*
X000810Y013080D01*
X000810Y012894D02*
X000530Y012894D01*
X000530Y013034D01*
X000576Y013080D01*
X000576Y012786D02*
X000530Y012739D01*
X000530Y012646D01*
X000576Y012599D01*
X000763Y012599D01*
X000810Y012646D01*
X000810Y012739D01*
X000763Y012786D01*
X000670Y012786D01*
X000670Y012692D01*
D14*
X001815Y014609D02*
X002445Y014609D01*
X002602Y014766D01*
X002602Y015199D01*
X002602Y015987D02*
X002602Y016577D01*
X001658Y016577D01*
X001658Y015987D01*
X001658Y015199D02*
X001658Y014766D01*
X001815Y014609D01*
X003641Y015403D02*
X003979Y015403D01*
X004129Y015857D02*
X004129Y016069D01*
X003979Y016523D02*
X003641Y016523D01*
X003740Y016784D02*
X003740Y016965D01*
X003862Y017057D01*
X003740Y017146D02*
X003740Y016965D01*
X003746Y016955D02*
X003862Y016879D01*
X004988Y016597D02*
X004988Y016007D01*
X004988Y016597D02*
X005932Y016597D01*
X005932Y016007D01*
X005932Y015219D02*
X005932Y014786D01*
X005775Y014629D01*
X005145Y014629D01*
X004988Y014786D01*
X004988Y015219D01*
X005411Y017079D02*
X005923Y017079D01*
X005923Y018496D02*
X005411Y018496D01*
X004406Y023063D02*
X003194Y023063D01*
X002800Y023575D02*
X002800Y024563D01*
X003194Y025063D02*
X004406Y025063D01*
X004800Y024551D02*
X004800Y023575D01*
X003300Y024063D02*
X003302Y024107D01*
X003308Y024151D01*
X003318Y024194D01*
X003331Y024236D01*
X003348Y024277D01*
X003369Y024316D01*
X003393Y024353D01*
X003420Y024388D01*
X003450Y024420D01*
X003483Y024450D01*
X003519Y024476D01*
X003556Y024500D01*
X003596Y024519D01*
X003637Y024536D01*
X003680Y024548D01*
X003723Y024557D01*
X003767Y024562D01*
X003811Y024563D01*
X003855Y024560D01*
X003899Y024553D01*
X003942Y024542D01*
X003984Y024528D01*
X004024Y024510D01*
X004063Y024488D01*
X004099Y024464D01*
X004133Y024436D01*
X004165Y024405D01*
X004194Y024371D01*
X004220Y024335D01*
X004242Y024297D01*
X004261Y024257D01*
X004276Y024215D01*
X004288Y024173D01*
X004296Y024129D01*
X004300Y024085D01*
X004300Y024041D01*
X004296Y023997D01*
X004288Y023953D01*
X004276Y023911D01*
X004261Y023869D01*
X004242Y023829D01*
X004220Y023791D01*
X004194Y023755D01*
X004165Y023721D01*
X004133Y023690D01*
X004099Y023662D01*
X004063Y023638D01*
X004024Y023616D01*
X003984Y023598D01*
X003942Y023584D01*
X003899Y023573D01*
X003855Y023566D01*
X003811Y023563D01*
X003767Y023564D01*
X003723Y023569D01*
X003680Y023578D01*
X003637Y023590D01*
X003596Y023607D01*
X003556Y023626D01*
X003519Y023650D01*
X003483Y023676D01*
X003450Y023706D01*
X003420Y023738D01*
X003393Y023773D01*
X003369Y023810D01*
X003348Y023849D01*
X003331Y023890D01*
X003318Y023932D01*
X003308Y023975D01*
X003302Y024019D01*
X003300Y024063D01*
X002123Y024853D02*
X001942Y024853D01*
X002034Y024731D01*
X001942Y024853D02*
X001761Y024853D01*
X001856Y024731D02*
X001932Y024847D01*
X009810Y024713D02*
X009810Y025213D01*
X010060Y025463D01*
X010560Y025463D01*
X010810Y025213D01*
X010810Y024713D01*
X010560Y024463D01*
X010810Y024213D01*
X010810Y023713D01*
X010560Y023463D01*
X010810Y023213D01*
X010810Y022713D01*
X010560Y022463D01*
X010060Y022463D01*
X009810Y022713D01*
X009810Y023213D01*
X010060Y023463D01*
X009810Y023713D01*
X009810Y024213D01*
X010060Y024463D01*
X009810Y024713D01*
X012670Y024463D02*
X012670Y023475D01*
X013064Y022963D02*
X014276Y022963D01*
X014670Y023475D02*
X014670Y024451D01*
X014276Y024963D02*
X013064Y024963D01*
X013170Y023963D02*
X013172Y024007D01*
X013178Y024051D01*
X013188Y024094D01*
X013201Y024136D01*
X013218Y024177D01*
X013239Y024216D01*
X013263Y024253D01*
X013290Y024288D01*
X013320Y024320D01*
X013353Y024350D01*
X013389Y024376D01*
X013426Y024400D01*
X013466Y024419D01*
X013507Y024436D01*
X013550Y024448D01*
X013593Y024457D01*
X013637Y024462D01*
X013681Y024463D01*
X013725Y024460D01*
X013769Y024453D01*
X013812Y024442D01*
X013854Y024428D01*
X013894Y024410D01*
X013933Y024388D01*
X013969Y024364D01*
X014003Y024336D01*
X014035Y024305D01*
X014064Y024271D01*
X014090Y024235D01*
X014112Y024197D01*
X014131Y024157D01*
X014146Y024115D01*
X014158Y024073D01*
X014166Y024029D01*
X014170Y023985D01*
X014170Y023941D01*
X014166Y023897D01*
X014158Y023853D01*
X014146Y023811D01*
X014131Y023769D01*
X014112Y023729D01*
X014090Y023691D01*
X014064Y023655D01*
X014035Y023621D01*
X014003Y023590D01*
X013969Y023562D01*
X013933Y023538D01*
X013894Y023516D01*
X013854Y023498D01*
X013812Y023484D01*
X013769Y023473D01*
X013725Y023466D01*
X013681Y023463D01*
X013637Y023464D01*
X013593Y023469D01*
X013550Y023478D01*
X013507Y023490D01*
X013466Y023507D01*
X013426Y023526D01*
X013389Y023550D01*
X013353Y023576D01*
X013320Y023606D01*
X013290Y023638D01*
X013263Y023673D01*
X013239Y023710D01*
X013218Y023749D01*
X013201Y023790D01*
X013188Y023832D01*
X013178Y023875D01*
X013172Y023919D01*
X013170Y023963D01*
X015230Y024071D02*
X015510Y024071D01*
X015580Y024141D01*
X015510Y024307D02*
X015580Y024378D01*
X015580Y024518D01*
X015510Y024588D01*
X015370Y024588D01*
X015300Y024518D01*
X015300Y024378D01*
X015370Y024307D01*
X015510Y024307D01*
X015300Y024141D02*
X015300Y024001D01*
X015300Y023834D02*
X015300Y023694D01*
X015230Y023764D02*
X015510Y023764D01*
X015580Y023834D01*
X015580Y023513D02*
X015300Y023513D01*
X015300Y023233D02*
X015510Y023233D01*
X015580Y023303D01*
X015580Y023513D01*
X015510Y023053D02*
X015580Y022983D01*
X015580Y022773D01*
X015160Y022773D01*
X015160Y022983D01*
X015230Y023053D01*
X015300Y023053D01*
X015370Y022983D01*
X015370Y022773D01*
X015370Y022983D02*
X015440Y023053D01*
X015510Y023053D01*
X015580Y024768D02*
X015300Y024768D01*
X015300Y024978D01*
X015370Y025048D01*
X015580Y025048D01*
X015290Y020715D02*
X015290Y020645D01*
X015430Y020505D01*
X015570Y020505D02*
X015290Y020505D01*
X015360Y020325D02*
X015290Y020255D01*
X015290Y020114D01*
X015360Y020044D01*
X015500Y020044D01*
X015570Y020114D01*
X015570Y020255D01*
X015500Y020325D01*
X015360Y020325D01*
X015290Y019864D02*
X015290Y019654D01*
X015360Y019584D01*
X015430Y019654D01*
X015430Y019794D01*
X015500Y019864D01*
X015570Y019794D01*
X015570Y019584D01*
X015570Y019404D02*
X015360Y019404D01*
X015290Y019334D01*
X015290Y019124D01*
X015570Y019124D01*
X015430Y018943D02*
X015430Y018663D01*
X015500Y018663D02*
X015360Y018663D01*
X015290Y018733D01*
X015290Y018873D01*
X015360Y018943D01*
X015430Y018943D01*
X015570Y018873D02*
X015570Y018733D01*
X015500Y018663D01*
X015500Y018483D02*
X015570Y018413D01*
X015570Y018273D01*
X015500Y018203D01*
X015360Y018273D02*
X015360Y018413D01*
X015430Y018483D01*
X015500Y018483D01*
X015360Y018273D02*
X015290Y018203D01*
X015220Y018203D01*
X015150Y018273D01*
X015150Y018413D01*
X015220Y018483D01*
X014970Y018553D02*
X014970Y018833D01*
X014970Y019013D02*
X014970Y019153D01*
X014970Y019083D02*
X014690Y019083D01*
X014690Y019013D01*
X014550Y019083D02*
X014480Y019083D01*
X014760Y019320D02*
X014690Y019390D01*
X014690Y019600D01*
X015040Y019600D01*
X015110Y019530D01*
X015110Y019460D01*
X014970Y019390D02*
X014970Y019600D01*
X014970Y019781D02*
X014550Y019781D01*
X014690Y019851D02*
X014690Y019991D01*
X014760Y020061D01*
X014970Y020061D01*
X014900Y020311D02*
X014970Y020381D01*
X014900Y020311D02*
X014620Y020311D01*
X014690Y020241D02*
X014690Y020381D01*
X014690Y019851D02*
X014760Y019781D01*
X014970Y019390D02*
X014900Y019320D01*
X014760Y019320D01*
X014550Y018553D02*
X014970Y018553D01*
X015270Y015945D02*
X015200Y015875D01*
X015200Y015665D01*
X015620Y015665D01*
X015620Y015875D01*
X015550Y015945D01*
X015270Y015945D01*
X015200Y015485D02*
X015200Y015205D01*
X015620Y015205D01*
X015620Y015485D01*
X015410Y015345D02*
X015410Y015205D01*
X015620Y015025D02*
X015620Y014744D01*
X015200Y014744D01*
X015270Y014104D02*
X015200Y014034D01*
X015200Y013824D01*
X015620Y013824D01*
X015620Y014034D01*
X015550Y014104D01*
X015480Y014104D01*
X015410Y014034D01*
X015410Y013824D01*
X015410Y013643D02*
X015410Y013503D01*
X015410Y013643D02*
X015550Y013643D01*
X015620Y013573D01*
X015620Y013433D01*
X015550Y013363D01*
X015270Y013363D01*
X015200Y013433D01*
X015200Y013573D01*
X015270Y013643D01*
X015270Y013183D02*
X015410Y013183D01*
X015480Y013113D01*
X015480Y012903D01*
X015480Y013043D02*
X015620Y013183D01*
X015620Y012903D02*
X015200Y012903D01*
X015200Y013113D01*
X015270Y013183D01*
X015410Y014034D02*
X015340Y014104D01*
X015270Y014104D01*
X013940Y013951D02*
X013822Y013951D01*
X013940Y013951D02*
X013940Y014975D01*
X013822Y014975D01*
X013310Y013833D02*
X013310Y013754D01*
X012798Y013951D02*
X012680Y013951D01*
X012680Y014975D01*
X012798Y014975D01*
X015390Y009715D02*
X015390Y009645D01*
X015530Y009505D01*
X015670Y009505D02*
X015390Y009505D01*
X015460Y009325D02*
X015390Y009255D01*
X015390Y009114D01*
X015460Y009044D01*
X015600Y009044D01*
X015670Y009114D01*
X015670Y009255D01*
X015530Y009325D02*
X015530Y009044D01*
X015670Y008864D02*
X015670Y008584D01*
X015390Y008864D01*
X015390Y008584D01*
X015390Y008404D02*
X015670Y008124D01*
X015670Y008404D01*
X015390Y008404D02*
X015390Y008124D01*
X015390Y007943D02*
X015670Y007943D01*
X015670Y007733D01*
X015600Y007663D01*
X015390Y007663D01*
X015390Y007483D02*
X015460Y007413D01*
X015460Y007203D01*
X015670Y007203D02*
X015670Y007413D01*
X015600Y007483D01*
X015530Y007483D01*
X015460Y007413D01*
X015390Y007483D02*
X015320Y007483D01*
X015250Y007413D01*
X015250Y007203D01*
X015670Y007203D01*
X015172Y007439D02*
X014227Y007439D01*
X015172Y007439D02*
X015172Y009486D01*
X014267Y009486D01*
X015460Y009325D02*
X015530Y009325D01*
X014228Y007439D02*
X014189Y007380D01*
X014148Y007323D01*
X014105Y007267D01*
X014059Y007214D01*
X014010Y007163D01*
X012160Y010113D02*
X012087Y010082D01*
X012015Y010047D01*
X011945Y010010D01*
X011877Y009969D01*
X011810Y009925D01*
X011745Y009878D01*
X011683Y009828D01*
X011623Y009776D01*
X011565Y009721D01*
X011510Y009663D01*
X011110Y008963D02*
X011087Y008880D01*
X011069Y008797D01*
X011054Y008713D01*
X011044Y008628D01*
X011038Y008543D01*
X011036Y008457D01*
X011038Y008372D01*
X011044Y008287D01*
X011055Y008202D01*
X011069Y008118D01*
X011088Y008034D01*
X011110Y007952D01*
X011137Y007871D01*
X011167Y007791D01*
X011201Y007713D01*
X011239Y007636D01*
X011281Y007562D01*
X011326Y007489D01*
X011375Y007419D01*
X011427Y007352D01*
X011482Y007286D01*
X011541Y007224D01*
X011602Y007165D01*
X011666Y007108D01*
X011733Y007055D01*
X011802Y007005D01*
X011874Y006958D01*
X011947Y006915D01*
X012023Y006876D01*
X012101Y006840D01*
X012180Y006809D01*
X014266Y009486D02*
X014212Y009555D01*
X014154Y009622D01*
X014094Y009685D01*
X014031Y009746D01*
X013965Y009804D01*
X013896Y009859D01*
X013825Y009910D01*
X013752Y009958D01*
X013677Y010003D01*
X013599Y010045D01*
X013520Y010082D01*
X013439Y010116D01*
X006089Y006843D02*
X005908Y006843D01*
X005816Y006965D01*
X005727Y006843D02*
X005908Y006843D01*
X005918Y006849D02*
X005994Y006965D01*
X005912Y005833D02*
X005731Y005833D01*
X005826Y005711D02*
X005902Y005827D01*
X005912Y005833D02*
X006004Y005711D01*
X006093Y005833D02*
X005912Y005833D01*
X004530Y003762D02*
X004176Y003762D01*
X004806Y002778D02*
X004806Y001951D01*
X002444Y003762D02*
X002090Y003762D01*
X001442Y004456D02*
X001442Y004889D01*
X001442Y004456D02*
X001285Y004299D01*
X000655Y004299D01*
X000498Y004456D01*
X000498Y004889D01*
X000498Y005677D02*
X000498Y006267D01*
X001442Y006267D01*
X001442Y005677D01*
X001814Y002778D02*
X001814Y001951D01*
D15*
X008134Y015628D02*
X008134Y015923D01*
X008233Y016022D01*
X008430Y016022D01*
X008528Y015923D01*
X008528Y015628D01*
X008725Y015628D02*
X008134Y015628D01*
X008331Y016272D02*
X008725Y016272D01*
X008528Y016272D02*
X008331Y016469D01*
X008331Y016568D01*
X008430Y016810D02*
X008331Y016908D01*
X008331Y017105D01*
X008430Y017203D01*
X008627Y017203D01*
X008725Y017105D01*
X008725Y016908D01*
X008627Y016810D01*
X008430Y016810D01*
X008331Y017454D02*
X008331Y017651D01*
X008233Y017552D02*
X008627Y017552D01*
X008725Y017651D01*
X008627Y017884D02*
X008430Y017884D01*
X008331Y017982D01*
X008331Y018179D01*
X008430Y018277D01*
X008627Y018277D01*
X008725Y018179D01*
X008725Y017982D01*
X008627Y017884D01*
X008627Y018528D02*
X008725Y018627D01*
X008725Y018824D01*
X008627Y018922D01*
X008528Y018922D01*
X008430Y018824D01*
X008430Y018627D01*
X008331Y018528D01*
X008233Y018528D01*
X008134Y018627D01*
X008134Y018824D01*
X008233Y018922D01*
X008331Y019173D02*
X008331Y019468D01*
X008430Y019567D01*
X008725Y019567D01*
X008627Y019817D02*
X008528Y019916D01*
X008528Y020211D01*
X008430Y020211D02*
X008725Y020211D01*
X008725Y019916D01*
X008627Y019817D01*
X008331Y019916D02*
X008331Y020113D01*
X008430Y020211D01*
X008331Y020462D02*
X008331Y020757D01*
X008430Y020856D01*
X008627Y020856D01*
X008725Y020757D01*
X008725Y020462D01*
X008922Y020462D02*
X008331Y020462D01*
X008331Y019173D02*
X008725Y019173D01*
D16*
X004802Y017253D02*
X004778Y017253D01*
X002220Y013995D02*
X002220Y013971D01*
X000822Y007363D02*
X000798Y007363D01*
X000762Y003513D02*
X000738Y003513D01*
X002131Y021524D02*
X002114Y021541D01*
X002233Y022378D02*
X002216Y022395D01*
D17*
X003810Y014913D03*
X011670Y024583D03*
X013310Y020463D03*
X013310Y015963D03*
X013310Y012963D03*
D18*
X014310Y014463D03*
X005910Y008113D03*
X005910Y004533D03*
X001940Y023643D03*
X005540Y023963D03*
D19*
X005810Y022532D02*
X005618Y022316D01*
X005584Y022285D01*
X005544Y022261D01*
X005529Y022256D01*
X005514Y022253D01*
X005424Y022253D01*
X005370Y022248D01*
X005318Y022233D01*
X005270Y022210D01*
X005224Y022178D01*
X005184Y022139D01*
X005149Y022096D01*
X005810Y022096D01*
X005810Y022104D02*
X005156Y022104D01*
X005149Y022096D02*
X005112Y022030D01*
X005087Y021958D01*
X005076Y021883D01*
X005078Y021807D01*
X005447Y021807D01*
X005446Y021809D02*
X005442Y021831D01*
X005443Y021855D01*
X005451Y021876D01*
X005464Y021896D01*
X005482Y021911D01*
X005504Y021923D01*
X005528Y021931D01*
X005553Y021935D01*
X005582Y021933D01*
X005610Y021925D01*
X005635Y021910D01*
X005648Y021896D01*
X005657Y021879D01*
X005661Y021861D01*
X005661Y021843D01*
X005657Y021826D01*
X005653Y021819D01*
X005648Y021814D01*
X005615Y021790D01*
X005715Y021790D01*
X005716Y021790D02*
X005741Y021803D01*
X005763Y021820D01*
X005782Y021842D01*
X005798Y021871D01*
X005807Y021902D01*
X005810Y021935D01*
X005810Y022532D01*
X005808Y022529D02*
X005810Y022529D01*
X005810Y022521D02*
X005800Y022521D01*
X005793Y022512D02*
X005810Y022512D01*
X005810Y022504D02*
X005785Y022504D01*
X005778Y022495D02*
X005810Y022495D01*
X005810Y022487D02*
X005770Y022487D01*
X005763Y022478D02*
X005810Y022478D01*
X005810Y022470D02*
X005755Y022470D01*
X005747Y022461D02*
X005810Y022461D01*
X005810Y022453D02*
X005740Y022453D01*
X005732Y022444D02*
X005810Y022444D01*
X005810Y022436D02*
X005725Y022436D01*
X005717Y022427D02*
X005810Y022427D01*
X005810Y022419D02*
X005710Y022419D01*
X005702Y022410D02*
X005810Y022410D01*
X005810Y022402D02*
X005695Y022402D01*
X005687Y022393D02*
X005810Y022393D01*
X005810Y022385D02*
X005679Y022385D01*
X005672Y022376D02*
X005810Y022376D01*
X005810Y022368D02*
X005664Y022368D01*
X005657Y022359D02*
X005810Y022359D01*
X005810Y022351D02*
X005649Y022351D01*
X005642Y022342D02*
X005810Y022342D01*
X005810Y022334D02*
X005634Y022334D01*
X005627Y022325D02*
X005810Y022325D01*
X005810Y022317D02*
X005619Y022317D01*
X005610Y022308D02*
X005810Y022308D01*
X005810Y022300D02*
X005601Y022300D01*
X005591Y022291D02*
X005810Y022291D01*
X005810Y022283D02*
X005581Y022283D01*
X005567Y022274D02*
X005810Y022274D01*
X005810Y022266D02*
X005553Y022266D01*
X005535Y022257D02*
X005810Y022257D01*
X005810Y022249D02*
X005381Y022249D01*
X005343Y022240D02*
X005810Y022240D01*
X005810Y022232D02*
X005315Y022232D01*
X005298Y022223D02*
X005810Y022223D01*
X005810Y022215D02*
X005280Y022215D01*
X005265Y022206D02*
X005810Y022206D01*
X005810Y022198D02*
X005253Y022198D01*
X005241Y022189D02*
X005810Y022189D01*
X005810Y022181D02*
X005229Y022181D01*
X005219Y022172D02*
X005810Y022172D01*
X005810Y022164D02*
X005210Y022164D01*
X005201Y022155D02*
X005810Y022155D01*
X005810Y022147D02*
X005192Y022147D01*
X005183Y022138D02*
X005810Y022138D01*
X005810Y022130D02*
X005176Y022130D01*
X005169Y022121D02*
X005810Y022121D01*
X005810Y022113D02*
X005163Y022113D01*
X005144Y022087D02*
X005810Y022087D01*
X005810Y022079D02*
X005139Y022079D01*
X005135Y022070D02*
X005810Y022070D01*
X005810Y022062D02*
X005130Y022062D01*
X005125Y022053D02*
X005810Y022053D01*
X005810Y022045D02*
X005120Y022045D01*
X005116Y022036D02*
X005810Y022036D01*
X005810Y022028D02*
X005111Y022028D01*
X005108Y022019D02*
X005810Y022019D01*
X005810Y022011D02*
X005105Y022011D01*
X005102Y022002D02*
X005810Y022002D01*
X005810Y021994D02*
X005099Y021994D01*
X005096Y021985D02*
X005810Y021985D01*
X005810Y021977D02*
X005094Y021977D01*
X005091Y021968D02*
X005810Y021968D01*
X005810Y021960D02*
X005088Y021960D01*
X005086Y021951D02*
X005810Y021951D01*
X005810Y021943D02*
X005085Y021943D01*
X005083Y021934D02*
X005551Y021934D01*
X005561Y021934D02*
X005810Y021934D01*
X005809Y021926D02*
X005606Y021926D01*
X005622Y021917D02*
X005809Y021917D01*
X005808Y021909D02*
X005636Y021909D01*
X005644Y021900D02*
X005807Y021900D01*
X005804Y021892D02*
X005650Y021892D01*
X005655Y021883D02*
X005802Y021883D01*
X005799Y021875D02*
X005658Y021875D01*
X005660Y021866D02*
X005795Y021866D01*
X005791Y021858D02*
X005661Y021858D01*
X005661Y021849D02*
X005786Y021849D01*
X005781Y021841D02*
X005660Y021841D01*
X005658Y021832D02*
X005774Y021832D01*
X005767Y021824D02*
X005656Y021824D01*
X005650Y021815D02*
X005757Y021815D01*
X005746Y021807D02*
X005639Y021807D01*
X005627Y021798D02*
X005732Y021798D01*
X005716Y021790D02*
X005688Y021783D01*
X005651Y021780D01*
X005614Y021783D01*
X005595Y021786D01*
X005602Y021785D01*
X005609Y021787D01*
X005615Y021790D01*
X005632Y021781D02*
X005670Y021781D01*
X005537Y021696D02*
X005116Y021696D01*
X005120Y021690D02*
X005156Y021645D01*
X005200Y021609D01*
X005200Y021644D01*
X005201Y021650D01*
X005203Y021655D01*
X005215Y021669D01*
X005230Y021680D01*
X005238Y021683D01*
X005261Y021685D01*
X005283Y021681D01*
X005303Y021671D01*
X005339Y021645D01*
X005356Y021631D01*
X005370Y021614D01*
X005382Y021595D01*
X005390Y021575D01*
X005393Y021562D01*
X005392Y021549D01*
X005385Y021527D01*
X005373Y021508D01*
X005357Y021492D01*
X005547Y021492D01*
X005538Y021484D02*
X005341Y021484D01*
X005337Y021482D02*
X005317Y021476D01*
X005296Y021474D01*
X005272Y021474D01*
X005273Y021473D01*
X005290Y021460D01*
X005310Y021451D01*
X005324Y021445D01*
X005333Y021441D01*
X005368Y021432D01*
X005403Y021429D01*
X005437Y021431D01*
X005470Y021441D01*
X005501Y021456D01*
X005532Y021478D01*
X005559Y021504D01*
X005576Y021528D01*
X005586Y021555D01*
X005590Y021584D01*
X005586Y021613D01*
X005575Y021640D01*
X005528Y021709D01*
X005471Y021770D01*
X005456Y021788D01*
X005446Y021809D01*
X005445Y021815D02*
X005078Y021815D01*
X005078Y021807D02*
X005086Y021766D01*
X005100Y021727D01*
X005120Y021690D01*
X005121Y021688D02*
X005543Y021688D01*
X005548Y021679D02*
X005286Y021679D01*
X005303Y021671D02*
X005554Y021671D01*
X005560Y021662D02*
X005315Y021662D01*
X005326Y021654D02*
X005565Y021654D01*
X005571Y021645D02*
X005338Y021645D01*
X005348Y021637D02*
X005576Y021637D01*
X005580Y021628D02*
X005357Y021628D01*
X005365Y021620D02*
X005583Y021620D01*
X005586Y021611D02*
X005371Y021611D01*
X005377Y021603D02*
X005587Y021603D01*
X005588Y021594D02*
X005382Y021594D01*
X005385Y021586D02*
X005590Y021586D01*
X005589Y021577D02*
X005389Y021577D01*
X005391Y021569D02*
X005588Y021569D01*
X005587Y021560D02*
X005392Y021560D01*
X005392Y021552D02*
X005585Y021552D01*
X005582Y021543D02*
X005390Y021543D01*
X005388Y021535D02*
X005579Y021535D01*
X005575Y021526D02*
X005385Y021526D01*
X005380Y021518D02*
X005569Y021518D01*
X005563Y021509D02*
X005374Y021509D01*
X005366Y021501D02*
X005556Y021501D01*
X005528Y021475D02*
X005310Y021475D01*
X005293Y021458D02*
X005505Y021458D01*
X005516Y021467D02*
X005281Y021467D01*
X005272Y021474D02*
X005272Y021474D01*
X005312Y021450D02*
X005489Y021450D01*
X005472Y021441D02*
X005332Y021441D01*
X005365Y021433D02*
X005443Y021433D01*
X005357Y021492D02*
X005337Y021482D01*
X005200Y021611D02*
X005197Y021611D01*
X005200Y021620D02*
X005186Y021620D01*
X005176Y021628D02*
X005200Y021628D01*
X005200Y021637D02*
X005166Y021637D01*
X005155Y021645D02*
X005200Y021645D01*
X005203Y021654D02*
X005149Y021654D01*
X005142Y021662D02*
X005209Y021662D01*
X005217Y021671D02*
X005135Y021671D01*
X005128Y021679D02*
X005229Y021679D01*
X005112Y021705D02*
X005531Y021705D01*
X005524Y021713D02*
X005107Y021713D01*
X005103Y021722D02*
X005516Y021722D01*
X005508Y021730D02*
X005099Y021730D01*
X005096Y021739D02*
X005500Y021739D01*
X005492Y021747D02*
X005093Y021747D01*
X005090Y021756D02*
X005484Y021756D01*
X005476Y021764D02*
X005087Y021764D01*
X005085Y021773D02*
X005468Y021773D01*
X005461Y021781D02*
X005083Y021781D01*
X005081Y021790D02*
X005455Y021790D01*
X005451Y021798D02*
X005080Y021798D01*
X005077Y021824D02*
X005443Y021824D01*
X005442Y021832D02*
X005077Y021832D01*
X005077Y021841D02*
X005442Y021841D01*
X005443Y021849D02*
X005077Y021849D01*
X005076Y021858D02*
X005445Y021858D01*
X005448Y021866D02*
X005076Y021866D01*
X005076Y021875D02*
X005451Y021875D01*
X005456Y021883D02*
X005076Y021883D01*
X005077Y021892D02*
X005462Y021892D01*
X005470Y021900D02*
X005078Y021900D01*
X005080Y021909D02*
X005480Y021909D01*
X005494Y021917D02*
X005081Y021917D01*
X005082Y021926D02*
X005514Y021926D01*
X008232Y014217D02*
X008247Y014206D01*
X008232Y014217D01*
X008213Y014233D01*
X008320Y014233D01*
X008329Y014225D02*
X008223Y014225D01*
X008213Y014233D02*
X008197Y014251D01*
X008175Y014286D01*
X008160Y014325D01*
X008154Y014367D01*
X008156Y014446D01*
X008164Y014484D01*
X008181Y014520D01*
X008205Y014551D01*
X008228Y014570D01*
X008253Y014585D01*
X008281Y014596D01*
X008325Y014605D01*
X008369Y014609D01*
X008784Y014609D01*
X008784Y014448D01*
X008404Y014448D01*
X008375Y014445D01*
X008347Y014437D01*
X008156Y014437D01*
X008156Y014429D02*
X008329Y014429D01*
X008281Y014595D02*
X008260Y014588D01*
X008240Y014578D01*
X008221Y014565D01*
X008205Y014550D01*
X008203Y014548D02*
X008784Y014548D01*
X008784Y014556D02*
X008211Y014556D01*
X008221Y014565D02*
X008784Y014565D01*
X008784Y014573D02*
X008233Y014573D01*
X008247Y014582D02*
X008784Y014582D01*
X008784Y014590D02*
X008266Y014590D01*
X008294Y014599D02*
X008784Y014599D01*
X008784Y014607D02*
X008349Y014607D01*
X008369Y014609D02*
X008784Y014609D01*
X008784Y014448D01*
X008404Y014448D01*
X008381Y014446D02*
X008156Y014446D01*
X008158Y014454D02*
X008784Y014454D01*
X008784Y014463D02*
X008160Y014463D01*
X008161Y014471D02*
X008784Y014471D01*
X008784Y014480D02*
X008163Y014480D01*
X008166Y014488D02*
X008784Y014488D01*
X008784Y014497D02*
X008170Y014497D01*
X008174Y014505D02*
X008784Y014505D01*
X008784Y014514D02*
X008178Y014514D01*
X008183Y014522D02*
X008784Y014522D01*
X008784Y014531D02*
X008189Y014531D01*
X008196Y014539D02*
X008784Y014539D01*
X008155Y014446D02*
X008153Y014407D01*
X008154Y014367D01*
X008154Y014369D02*
X008281Y014369D01*
X008280Y014366D02*
X008279Y014353D01*
X008281Y014309D01*
X008285Y014286D01*
X008293Y014265D01*
X008306Y014246D01*
X008329Y014225D01*
X008357Y014210D01*
X008387Y014201D01*
X008419Y014198D01*
X008788Y014198D01*
X008788Y014032D01*
X008169Y014032D01*
X008169Y014191D01*
X008256Y014191D01*
X008256Y014194D01*
X008255Y014198D01*
X008253Y014201D01*
X008247Y014206D01*
X008244Y014208D02*
X008364Y014208D01*
X008345Y014216D02*
X008233Y014216D01*
X008253Y014201D02*
X008255Y014198D01*
X008256Y014194D01*
X008256Y014191D01*
X008169Y014191D01*
X008169Y014032D01*
X008788Y014032D01*
X008788Y014198D01*
X008446Y014198D01*
X008405Y014199D02*
X008254Y014199D01*
X008254Y014201D02*
X008248Y014206D01*
X008205Y014242D02*
X008310Y014242D01*
X008303Y014250D02*
X008198Y014250D01*
X008192Y014259D02*
X008297Y014259D01*
X008292Y014267D02*
X008187Y014267D01*
X008181Y014276D02*
X008289Y014276D01*
X008285Y014284D02*
X008176Y014284D01*
X008172Y014293D02*
X008283Y014293D01*
X008282Y014301D02*
X008169Y014301D01*
X008166Y014310D02*
X008281Y014310D01*
X008281Y014318D02*
X008163Y014318D01*
X008160Y014327D02*
X008280Y014327D01*
X008280Y014335D02*
X008159Y014335D01*
X008157Y014344D02*
X008279Y014344D01*
X008279Y014352D02*
X008156Y014352D01*
X008155Y014361D02*
X008279Y014361D01*
X008280Y014366D02*
X008283Y014379D01*
X008292Y014397D01*
X008305Y014413D01*
X008321Y014425D01*
X008347Y014437D01*
X008206Y014550D02*
X008190Y014533D01*
X008177Y014513D01*
X008167Y014491D01*
X008161Y014469D01*
X008157Y014446D01*
X008155Y014420D02*
X008315Y014420D01*
X008304Y014412D02*
X008155Y014412D01*
X008155Y014403D02*
X008297Y014403D01*
X008291Y014395D02*
X008155Y014395D01*
X008154Y014386D02*
X008287Y014386D01*
X008283Y014378D02*
X008154Y014378D01*
X008169Y014191D02*
X008788Y014191D01*
X008788Y014182D02*
X008169Y014182D01*
X008169Y014174D02*
X008788Y014174D01*
X008788Y014165D02*
X008169Y014165D01*
X008169Y014157D02*
X008788Y014157D01*
X008788Y014148D02*
X008169Y014148D01*
X008169Y014140D02*
X008788Y014140D01*
X008788Y014131D02*
X008169Y014131D01*
X008169Y014123D02*
X008788Y014123D01*
X008788Y014114D02*
X008169Y014114D01*
X008169Y014106D02*
X008788Y014106D01*
X008788Y014097D02*
X008169Y014097D01*
X008169Y014089D02*
X008788Y014089D01*
X008788Y014080D02*
X008169Y014080D01*
X008169Y014072D02*
X008788Y014072D01*
X008788Y014063D02*
X008169Y014063D01*
X008169Y014055D02*
X008788Y014055D01*
X008788Y014046D02*
X008169Y014046D01*
X008169Y014038D02*
X008788Y014038D01*
X008785Y013934D02*
X008170Y013934D01*
X008170Y013768D01*
X008497Y013768D01*
X008546Y013765D01*
X008594Y013756D01*
X008617Y013747D01*
X008637Y013734D01*
X008653Y013716D01*
X008665Y013695D01*
X008674Y013667D01*
X008676Y013637D01*
X008673Y013608D01*
X008664Y013580D01*
X008655Y013563D01*
X008642Y013549D01*
X008627Y013538D01*
X008596Y013524D01*
X008562Y013518D01*
X008168Y013518D01*
X008168Y013355D01*
X008593Y013355D01*
X008636Y013359D01*
X008678Y013371D01*
X008717Y013390D01*
X008752Y013416D01*
X008761Y013426D01*
X008782Y013461D01*
X008795Y013500D01*
X008801Y013541D01*
X008800Y013600D01*
X008791Y013658D01*
X008788Y013668D01*
X008783Y013678D01*
X008757Y013714D01*
X008726Y013747D01*
X008691Y013775D01*
X008691Y013776D01*
X008785Y013776D01*
X008785Y013934D01*
X008785Y013927D02*
X008170Y013927D01*
X008170Y013919D02*
X008785Y013919D01*
X008785Y013910D02*
X008170Y013910D01*
X008170Y013902D02*
X008785Y013902D01*
X008785Y013893D02*
X008170Y013893D01*
X008170Y013885D02*
X008785Y013885D01*
X008785Y013876D02*
X008170Y013876D01*
X008170Y013868D02*
X008785Y013868D01*
X008785Y013859D02*
X008170Y013859D01*
X008170Y013851D02*
X008785Y013851D01*
X008785Y013842D02*
X008170Y013842D01*
X008170Y013834D02*
X008785Y013834D01*
X008785Y013825D02*
X008170Y013825D01*
X008170Y013817D02*
X008785Y013817D01*
X008785Y013808D02*
X008170Y013808D01*
X008170Y013800D02*
X008785Y013800D01*
X008785Y013791D02*
X008170Y013791D01*
X008170Y013783D02*
X008785Y013783D01*
X008733Y013740D02*
X008627Y013740D01*
X008639Y013732D02*
X008741Y013732D01*
X008749Y013723D02*
X008646Y013723D01*
X008654Y013715D02*
X008757Y013715D01*
X008763Y013706D02*
X008659Y013706D01*
X008663Y013698D02*
X008769Y013698D01*
X008775Y013689D02*
X008667Y013689D01*
X008669Y013681D02*
X008781Y013681D01*
X008786Y013672D02*
X008672Y013672D01*
X008674Y013664D02*
X008789Y013664D01*
X008791Y013655D02*
X008675Y013655D01*
X008675Y013647D02*
X008793Y013647D01*
X008794Y013638D02*
X008676Y013638D01*
X008676Y013630D02*
X008795Y013630D01*
X008797Y013621D02*
X008675Y013621D01*
X008674Y013613D02*
X008798Y013613D01*
X008799Y013604D02*
X008672Y013604D01*
X008669Y013596D02*
X008800Y013596D01*
X008800Y013587D02*
X008666Y013587D01*
X008663Y013579D02*
X008800Y013579D01*
X008800Y013570D02*
X008659Y013570D01*
X008653Y013562D02*
X008801Y013562D01*
X008801Y013553D02*
X008646Y013553D01*
X008636Y013545D02*
X008801Y013545D01*
X008800Y013536D02*
X008623Y013536D01*
X008604Y013528D02*
X008799Y013528D01*
X008798Y013519D02*
X008570Y013519D01*
X008624Y013358D02*
X008168Y013358D01*
X008168Y013366D02*
X008663Y013366D01*
X008686Y013375D02*
X008168Y013375D01*
X008168Y013383D02*
X008704Y013383D01*
X008720Y013392D02*
X008168Y013392D01*
X008168Y013400D02*
X008731Y013400D01*
X008742Y013409D02*
X008168Y013409D01*
X008168Y013417D02*
X008753Y013417D01*
X008761Y013426D02*
X008168Y013426D01*
X008168Y013434D02*
X008766Y013434D01*
X008771Y013443D02*
X008168Y013443D01*
X008168Y013451D02*
X008776Y013451D01*
X008781Y013460D02*
X008168Y013460D01*
X008168Y013468D02*
X008784Y013468D01*
X008787Y013477D02*
X008168Y013477D01*
X008168Y013485D02*
X008790Y013485D01*
X008793Y013494D02*
X008168Y013494D01*
X008168Y013502D02*
X008795Y013502D01*
X008797Y013511D02*
X008168Y013511D01*
X008170Y013297D02*
X008275Y013297D01*
X008275Y013179D01*
X008788Y013179D01*
X008788Y013015D01*
X008276Y013015D01*
X008275Y012858D01*
X008170Y012963D01*
X008170Y013017D01*
X008152Y013017D01*
X008068Y013024D01*
X008046Y013030D01*
X008025Y013039D01*
X008006Y013053D01*
X007978Y013082D01*
X007956Y013116D01*
X007942Y013154D01*
X007935Y013194D01*
X007935Y013255D01*
X007938Y013307D01*
X007938Y013308D01*
X008057Y013308D01*
X008057Y013305D01*
X008056Y013294D01*
X008053Y013257D01*
X008056Y013221D01*
X008060Y013209D01*
X008068Y013198D01*
X008078Y013190D01*
X008096Y013182D01*
X008115Y013180D01*
X008170Y013180D01*
X008170Y013297D01*
X008170Y013290D02*
X008275Y013290D01*
X008275Y013281D02*
X008170Y013281D01*
X008170Y013273D02*
X008275Y013273D01*
X008275Y013264D02*
X008170Y013264D01*
X008170Y013256D02*
X008275Y013256D01*
X008275Y013247D02*
X008170Y013247D01*
X008170Y013239D02*
X008275Y013239D01*
X008275Y013230D02*
X008170Y013230D01*
X008170Y013222D02*
X008275Y013222D01*
X008275Y013213D02*
X008170Y013213D01*
X008170Y013205D02*
X008275Y013205D01*
X008275Y013196D02*
X008170Y013196D01*
X008170Y013188D02*
X008275Y013188D01*
X008275Y013179D02*
X007938Y013179D01*
X007939Y013171D02*
X008788Y013171D01*
X008788Y013162D02*
X007940Y013162D01*
X007942Y013154D02*
X008788Y013154D01*
X008788Y013145D02*
X007945Y013145D01*
X007949Y013137D02*
X008788Y013137D01*
X008788Y013128D02*
X007952Y013128D01*
X007955Y013120D02*
X008788Y013120D01*
X008788Y013111D02*
X007960Y013111D01*
X007965Y013103D02*
X008788Y013103D01*
X008788Y013094D02*
X007970Y013094D01*
X007976Y013086D02*
X008788Y013086D01*
X008788Y013077D02*
X007983Y013077D01*
X007991Y013069D02*
X008788Y013069D01*
X008788Y013060D02*
X007999Y013060D01*
X008008Y013052D02*
X008788Y013052D01*
X008788Y013043D02*
X008020Y013043D01*
X008035Y013035D02*
X008788Y013035D01*
X008788Y013026D02*
X008059Y013026D01*
X008142Y013018D02*
X008788Y013018D01*
X008786Y012902D02*
X008785Y012702D01*
X008508Y012534D01*
X008505Y012532D01*
X008574Y012461D01*
X008789Y012461D01*
X008789Y012298D01*
X008787Y012296D01*
X008026Y012296D01*
X007933Y012459D01*
X008395Y012459D01*
X008171Y012683D01*
X008171Y012867D01*
X008393Y012640D01*
X008786Y012902D01*
X008786Y012899D02*
X008781Y012899D01*
X008786Y012890D02*
X008769Y012890D01*
X008756Y012882D02*
X008786Y012882D01*
X008786Y012873D02*
X008743Y012873D01*
X008730Y012865D02*
X008786Y012865D01*
X008786Y012856D02*
X008718Y012856D01*
X008705Y012848D02*
X008786Y012848D01*
X008786Y012839D02*
X008692Y012839D01*
X008679Y012831D02*
X008786Y012831D01*
X008786Y012822D02*
X008667Y012822D01*
X008654Y012814D02*
X008786Y012814D01*
X008786Y012805D02*
X008641Y012805D01*
X008628Y012797D02*
X008785Y012797D01*
X008785Y012788D02*
X008616Y012788D01*
X008603Y012780D02*
X008785Y012780D01*
X008785Y012771D02*
X008590Y012771D01*
X008577Y012763D02*
X008785Y012763D01*
X008785Y012754D02*
X008565Y012754D01*
X008552Y012746D02*
X008785Y012746D01*
X008785Y012737D02*
X008539Y012737D01*
X008526Y012729D02*
X008785Y012729D01*
X008785Y012720D02*
X008514Y012720D01*
X008501Y012712D02*
X008785Y012712D01*
X008785Y012703D02*
X008488Y012703D01*
X008475Y012695D02*
X008773Y012695D01*
X008759Y012686D02*
X008463Y012686D01*
X008450Y012678D02*
X008745Y012678D01*
X008731Y012669D02*
X008437Y012669D01*
X008424Y012661D02*
X008717Y012661D01*
X008703Y012652D02*
X008412Y012652D01*
X008399Y012644D02*
X008689Y012644D01*
X008675Y012635D02*
X008219Y012635D01*
X008227Y012627D02*
X008661Y012627D01*
X008647Y012618D02*
X008236Y012618D01*
X008244Y012610D02*
X008633Y012610D01*
X008619Y012601D02*
X008253Y012601D01*
X008261Y012593D02*
X008605Y012593D01*
X008591Y012584D02*
X008270Y012584D01*
X008278Y012576D02*
X008577Y012576D01*
X008563Y012567D02*
X008287Y012567D01*
X008295Y012559D02*
X008549Y012559D01*
X008535Y012550D02*
X008304Y012550D01*
X008312Y012542D02*
X008521Y012542D01*
X008507Y012533D02*
X008321Y012533D01*
X008329Y012525D02*
X008512Y012525D01*
X008520Y012516D02*
X008338Y012516D01*
X008346Y012508D02*
X008528Y012508D01*
X008537Y012499D02*
X008355Y012499D01*
X008363Y012491D02*
X008545Y012491D01*
X008553Y012482D02*
X008372Y012482D01*
X008380Y012474D02*
X008562Y012474D01*
X008570Y012465D02*
X008389Y012465D01*
X008389Y012644D02*
X008210Y012644D01*
X008202Y012652D02*
X008381Y012652D01*
X008373Y012661D02*
X008193Y012661D01*
X008185Y012669D02*
X008364Y012669D01*
X008356Y012678D02*
X008176Y012678D01*
X008171Y012686D02*
X008348Y012686D01*
X008339Y012695D02*
X008171Y012695D01*
X008171Y012703D02*
X008331Y012703D01*
X008323Y012712D02*
X008171Y012712D01*
X008171Y012720D02*
X008314Y012720D01*
X008306Y012729D02*
X008171Y012729D01*
X008171Y012737D02*
X008298Y012737D01*
X008289Y012746D02*
X008171Y012746D01*
X008171Y012754D02*
X008281Y012754D01*
X008273Y012763D02*
X008171Y012763D01*
X008171Y012771D02*
X008265Y012771D01*
X008256Y012780D02*
X008171Y012780D01*
X008171Y012788D02*
X008248Y012788D01*
X008240Y012797D02*
X008171Y012797D01*
X008171Y012805D02*
X008231Y012805D01*
X008223Y012814D02*
X008171Y012814D01*
X008171Y012822D02*
X008215Y012822D01*
X008206Y012831D02*
X008171Y012831D01*
X008171Y012839D02*
X008198Y012839D01*
X008190Y012848D02*
X008171Y012848D01*
X008171Y012856D02*
X008181Y012856D01*
X008173Y012865D02*
X008171Y012865D01*
X008217Y012916D02*
X008275Y012916D01*
X008275Y012924D02*
X008209Y012924D01*
X008200Y012933D02*
X008275Y012933D01*
X008276Y012941D02*
X008192Y012941D01*
X008183Y012950D02*
X008276Y012950D01*
X008276Y012958D02*
X008175Y012958D01*
X008170Y012967D02*
X008276Y012967D01*
X008276Y012975D02*
X008170Y012975D01*
X008170Y012984D02*
X008276Y012984D01*
X008276Y012992D02*
X008170Y012992D01*
X008170Y013001D02*
X008276Y013001D01*
X008276Y013009D02*
X008170Y013009D01*
X008226Y012907D02*
X008275Y012907D01*
X008275Y012899D02*
X008234Y012899D01*
X008243Y012890D02*
X008275Y012890D01*
X008275Y012882D02*
X008251Y012882D01*
X008260Y012873D02*
X008275Y012873D01*
X008275Y012865D02*
X008268Y012865D01*
X008083Y013188D02*
X007936Y013188D01*
X007935Y013196D02*
X008070Y013196D01*
X008063Y013205D02*
X007935Y013205D01*
X007935Y013213D02*
X008059Y013213D01*
X008056Y013222D02*
X007935Y013222D01*
X007935Y013230D02*
X008055Y013230D01*
X008054Y013239D02*
X007935Y013239D01*
X007935Y013247D02*
X008054Y013247D01*
X008053Y013256D02*
X007935Y013256D01*
X007936Y013264D02*
X008053Y013264D01*
X008054Y013273D02*
X007936Y013273D01*
X007937Y013281D02*
X008055Y013281D01*
X008056Y013290D02*
X007937Y013290D01*
X007937Y013298D02*
X008056Y013298D01*
X008057Y013307D02*
X007938Y013307D01*
X008170Y013774D02*
X008692Y013774D01*
X008703Y013766D02*
X008531Y013766D01*
X008587Y013757D02*
X008713Y013757D01*
X008724Y013749D02*
X008613Y013749D01*
X008404Y014447D02*
X008382Y014446D01*
X008361Y014441D01*
X008341Y014434D01*
X008321Y014424D01*
X008154Y014367D02*
X008157Y014342D01*
X008163Y014317D01*
X008171Y014294D01*
X008183Y014271D01*
X008197Y014251D01*
X008280Y014596D02*
X008309Y014603D01*
X008339Y014607D01*
X008369Y014609D01*
X008357Y014210D02*
X008377Y014204D01*
X008398Y014200D01*
X008419Y014198D01*
X008306Y014246D02*
X008296Y014260D01*
X008288Y014275D01*
X008283Y014291D01*
X008281Y014309D01*
X008279Y014353D02*
X008280Y014366D01*
X008283Y014379D01*
X008197Y014250D02*
X008213Y014232D01*
X008232Y014216D01*
X008283Y014378D02*
X008290Y014392D01*
X008298Y014405D01*
X008309Y014415D01*
X008321Y014424D01*
X008306Y014246D02*
X008321Y014231D01*
X008338Y014219D01*
X008357Y014210D01*
X008420Y014198D02*
X008446Y014198D01*
X008789Y012457D02*
X007934Y012457D01*
X007939Y012448D02*
X008789Y012448D01*
X008789Y012440D02*
X007944Y012440D01*
X007949Y012431D02*
X008789Y012431D01*
X008789Y012423D02*
X007954Y012423D01*
X007958Y012414D02*
X008789Y012414D01*
X008789Y012406D02*
X007963Y012406D01*
X007968Y012397D02*
X008789Y012397D01*
X008789Y012389D02*
X007973Y012389D01*
X007978Y012380D02*
X008789Y012380D01*
X008789Y012372D02*
X007983Y012372D01*
X007988Y012363D02*
X008789Y012363D01*
X008789Y012355D02*
X007992Y012355D01*
X007997Y012346D02*
X008789Y012346D01*
X008789Y012338D02*
X008002Y012338D01*
X008007Y012329D02*
X008789Y012329D01*
X008789Y012321D02*
X008012Y012321D01*
X008017Y012312D02*
X008789Y012312D01*
X008789Y012304D02*
X008022Y012304D01*
X008158Y012222D02*
X008310Y012222D01*
X008310Y012221D01*
X008309Y012215D01*
X008304Y012191D01*
X008304Y012130D01*
X008308Y012108D01*
X008170Y012108D01*
X008167Y012114D02*
X008158Y012140D01*
X008155Y012168D01*
X008158Y012222D01*
X008158Y012219D02*
X008310Y012219D01*
X008308Y012210D02*
X008157Y012210D01*
X008157Y012202D02*
X008306Y012202D01*
X008305Y012193D02*
X008156Y012193D01*
X008156Y012185D02*
X008304Y012185D01*
X008304Y012176D02*
X008155Y012176D01*
X008155Y012168D02*
X008304Y012168D01*
X008304Y012159D02*
X008156Y012159D01*
X008157Y012151D02*
X008304Y012151D01*
X008304Y012142D02*
X008158Y012142D01*
X008161Y012134D02*
X008304Y012134D01*
X008305Y012125D02*
X008163Y012125D01*
X008166Y012117D02*
X008306Y012117D01*
X008308Y012108D02*
X008315Y012087D01*
X008326Y012067D01*
X008349Y012040D01*
X008377Y012018D01*
X008409Y012004D01*
X008442Y011996D01*
X008476Y011993D01*
X008784Y011993D01*
X008784Y011829D01*
X008198Y011830D01*
X008171Y011982D01*
X008284Y011982D01*
X008286Y011986D01*
X008284Y011992D01*
X008272Y012000D01*
X008231Y012027D01*
X008216Y012039D01*
X008204Y012055D01*
X008181Y012090D01*
X008167Y012114D01*
X008175Y012100D02*
X008311Y012100D01*
X008314Y012091D02*
X008180Y012091D01*
X008186Y012083D02*
X008317Y012083D01*
X008322Y012074D02*
X008191Y012074D01*
X008197Y012066D02*
X008327Y012066D01*
X008334Y012057D02*
X008202Y012057D01*
X008209Y012049D02*
X008341Y012049D01*
X008348Y012040D02*
X008215Y012040D01*
X008225Y012032D02*
X008359Y012032D01*
X008371Y012023D02*
X008237Y012023D01*
X008249Y012015D02*
X008385Y012015D01*
X008404Y012006D02*
X008262Y012006D01*
X008275Y011998D02*
X008434Y011998D01*
X008285Y011989D02*
X008784Y011989D01*
X008784Y011981D02*
X008171Y011981D01*
X008173Y011972D02*
X008784Y011972D01*
X008784Y011964D02*
X008174Y011964D01*
X008176Y011955D02*
X008784Y011955D01*
X008784Y011947D02*
X008177Y011947D01*
X008179Y011938D02*
X008784Y011938D01*
X008784Y011930D02*
X008180Y011930D01*
X008182Y011921D02*
X008784Y011921D01*
X008784Y011913D02*
X008183Y011913D01*
X008185Y011904D02*
X008784Y011904D01*
X008784Y011896D02*
X008186Y011896D01*
X008188Y011887D02*
X008784Y011887D01*
X008784Y011879D02*
X008189Y011879D01*
X008191Y011870D02*
X008784Y011870D01*
X008784Y011862D02*
X008192Y011862D01*
X008194Y011853D02*
X008784Y011853D01*
X008784Y011845D02*
X008195Y011845D01*
X008197Y011836D02*
X008784Y011836D01*
X008784Y011743D02*
X008776Y011740D01*
X008724Y011726D01*
X008671Y011722D01*
X008500Y011723D01*
X008500Y011562D01*
X008533Y011562D01*
X008576Y011559D01*
X008619Y011551D01*
X008626Y011549D01*
X008637Y011544D01*
X008646Y011538D01*
X008675Y011508D01*
X008683Y011495D01*
X008688Y011482D01*
X008694Y011440D01*
X008692Y011379D01*
X008688Y011360D01*
X008799Y011360D01*
X008799Y011352D02*
X008684Y011352D01*
X008688Y011360D02*
X008679Y011342D01*
X008667Y011327D01*
X008656Y011319D01*
X008644Y011313D01*
X008631Y011310D01*
X008607Y011309D01*
X008583Y011314D01*
X008561Y011323D01*
X008548Y011332D01*
X008538Y011343D01*
X008526Y011362D01*
X008518Y011384D01*
X008514Y011406D01*
X008508Y011463D01*
X008501Y011502D01*
X008490Y011540D01*
X008486Y011548D01*
X008480Y011555D01*
X008472Y011560D01*
X008472Y011562D01*
X008496Y011562D01*
X008496Y011722D01*
X008306Y011722D01*
X008277Y011718D01*
X008250Y011708D01*
X008226Y011691D01*
X008207Y011669D01*
X008180Y011618D01*
X008163Y011562D01*
X008154Y011493D01*
X008154Y011424D01*
X008162Y011356D01*
X008175Y011307D01*
X008196Y011262D01*
X008219Y011230D01*
X008247Y011203D01*
X008281Y011182D01*
X008318Y011169D01*
X008357Y011164D01*
X008356Y011163D01*
X008356Y011330D01*
X008354Y011330D01*
X008332Y011332D01*
X008312Y011340D01*
X008293Y011352D01*
X008279Y011369D01*
X008160Y011369D01*
X008159Y011377D02*
X008274Y011377D01*
X008279Y011369D02*
X008268Y011388D01*
X008261Y011411D01*
X008259Y011435D01*
X008261Y011489D01*
X008264Y011504D01*
X008269Y011519D01*
X008277Y011532D01*
X008287Y011543D01*
X008299Y011551D01*
X008312Y011557D01*
X008334Y011561D01*
X008356Y011561D01*
X008377Y011557D01*
X008382Y011555D01*
X008386Y011552D01*
X008397Y011540D01*
X008407Y011522D01*
X008414Y011503D01*
X008423Y011451D01*
X008432Y011364D01*
X008443Y011303D01*
X008462Y011245D01*
X008476Y011217D01*
X008496Y011193D01*
X008520Y011174D01*
X008554Y011157D01*
X008591Y011149D01*
X008633Y011149D01*
X008674Y011156D01*
X008558Y011156D01*
X008538Y011165D02*
X008697Y011165D01*
X008713Y011171D02*
X008732Y011182D01*
X008749Y011197D01*
X008762Y011215D01*
X008786Y011265D01*
X008798Y011319D01*
X008799Y011383D01*
X008790Y011447D01*
X008776Y011488D01*
X008686Y011488D01*
X008682Y011496D02*
X008771Y011496D01*
X008766Y011505D02*
X008677Y011505D01*
X008670Y011513D02*
X008762Y011513D01*
X008757Y011522D02*
X008662Y011522D01*
X008653Y011530D02*
X008751Y011530D01*
X008755Y011525D02*
X008727Y011558D01*
X008726Y011560D01*
X008725Y011562D01*
X008726Y011565D01*
X008728Y011567D01*
X008730Y011568D01*
X008771Y011577D01*
X008782Y011580D01*
X008783Y011581D01*
X008784Y011582D01*
X008784Y011584D01*
X008784Y011743D01*
X008784Y011743D01*
X008784Y011734D02*
X008755Y011734D01*
X008784Y011726D02*
X008721Y011726D01*
X008784Y011717D02*
X008500Y011717D01*
X008496Y011717D02*
X008274Y011717D01*
X008252Y011709D02*
X008496Y011709D01*
X008500Y011709D02*
X008784Y011709D01*
X008784Y011700D02*
X008500Y011700D01*
X008496Y011700D02*
X008239Y011700D01*
X008227Y011692D02*
X008496Y011692D01*
X008500Y011692D02*
X008784Y011692D01*
X008784Y011683D02*
X008500Y011683D01*
X008496Y011683D02*
X008219Y011683D01*
X008212Y011675D02*
X008496Y011675D01*
X008500Y011675D02*
X008784Y011675D01*
X008784Y011666D02*
X008500Y011666D01*
X008496Y011666D02*
X008206Y011666D01*
X008201Y011658D02*
X008496Y011658D01*
X008500Y011658D02*
X008784Y011658D01*
X008784Y011649D02*
X008500Y011649D01*
X008496Y011649D02*
X008197Y011649D01*
X008192Y011641D02*
X008496Y011641D01*
X008500Y011641D02*
X008784Y011641D01*
X008784Y011632D02*
X008500Y011632D01*
X008496Y011632D02*
X008188Y011632D01*
X008183Y011624D02*
X008496Y011624D01*
X008500Y011624D02*
X008784Y011624D01*
X008784Y011615D02*
X008500Y011615D01*
X008496Y011615D02*
X008179Y011615D01*
X008176Y011607D02*
X008496Y011607D01*
X008500Y011607D02*
X008784Y011607D01*
X008784Y011598D02*
X008500Y011598D01*
X008496Y011598D02*
X008174Y011598D01*
X008171Y011590D02*
X008496Y011590D01*
X008500Y011590D02*
X008784Y011590D01*
X008784Y011581D02*
X008500Y011581D01*
X008496Y011581D02*
X008169Y011581D01*
X008166Y011573D02*
X008496Y011573D01*
X008500Y011573D02*
X008752Y011573D01*
X008726Y011564D02*
X008500Y011564D01*
X008496Y011564D02*
X008164Y011564D01*
X008162Y011556D02*
X008309Y011556D01*
X008293Y011547D02*
X008161Y011547D01*
X008160Y011539D02*
X008283Y011539D01*
X008276Y011530D02*
X008159Y011530D01*
X008158Y011522D02*
X008271Y011522D01*
X008267Y011513D02*
X008157Y011513D01*
X008155Y011505D02*
X008264Y011505D01*
X008262Y011496D02*
X008154Y011496D01*
X008154Y011488D02*
X008261Y011488D01*
X008261Y011479D02*
X008154Y011479D01*
X008154Y011471D02*
X008260Y011471D01*
X008260Y011462D02*
X008154Y011462D01*
X008154Y011454D02*
X008260Y011454D01*
X008259Y011445D02*
X008154Y011445D01*
X008154Y011437D02*
X008259Y011437D01*
X008260Y011428D02*
X008154Y011428D01*
X008154Y011420D02*
X008260Y011420D01*
X008261Y011411D02*
X008155Y011411D01*
X008156Y011403D02*
X008264Y011403D01*
X008266Y011394D02*
X008157Y011394D01*
X008158Y011386D02*
X008269Y011386D01*
X008286Y011360D02*
X008161Y011360D01*
X008163Y011352D02*
X008294Y011352D01*
X008307Y011343D02*
X008165Y011343D01*
X008168Y011335D02*
X008326Y011335D01*
X008356Y011326D02*
X008170Y011326D01*
X008172Y011318D02*
X008356Y011318D01*
X008356Y011309D02*
X008175Y011309D01*
X008178Y011301D02*
X008356Y011301D01*
X008356Y011292D02*
X008182Y011292D01*
X008186Y011284D02*
X008356Y011284D01*
X008356Y011275D02*
X008190Y011275D01*
X008194Y011267D02*
X008356Y011267D01*
X008356Y011258D02*
X008199Y011258D01*
X008205Y011250D02*
X008356Y011250D01*
X008356Y011241D02*
X008211Y011241D01*
X008217Y011233D02*
X008356Y011233D01*
X008356Y011224D02*
X008224Y011224D01*
X008234Y011216D02*
X008356Y011216D01*
X008356Y011207D02*
X008243Y011207D01*
X008254Y011199D02*
X008356Y011199D01*
X008356Y011190D02*
X008268Y011190D01*
X008283Y011182D02*
X008356Y011182D01*
X008356Y011173D02*
X008307Y011173D01*
X008351Y011165D02*
X008356Y011165D01*
X008384Y011075D02*
X008471Y011086D01*
X008558Y011082D01*
X008612Y011069D01*
X008663Y011047D01*
X008710Y011017D01*
X008738Y010991D01*
X008761Y010961D01*
X008778Y010927D01*
X008790Y010891D01*
X008797Y010843D01*
X008798Y010795D01*
X008792Y010747D01*
X008782Y010714D01*
X008670Y010714D01*
X008667Y010706D02*
X008777Y010706D01*
X008782Y010714D02*
X008764Y010683D01*
X008741Y010657D01*
X008713Y010637D01*
X008596Y010637D01*
X008593Y010640D01*
X008595Y010640D01*
X008599Y010641D01*
X008602Y010643D01*
X008605Y010645D01*
X008628Y010657D01*
X008647Y010674D01*
X008662Y010695D01*
X008674Y010722D01*
X008680Y010752D01*
X008680Y010789D01*
X008673Y010825D01*
X008659Y010855D01*
X008638Y010881D01*
X008611Y010900D01*
X008580Y010912D01*
X008502Y010924D01*
X008424Y010924D01*
X008385Y010916D01*
X008348Y010900D01*
X008317Y010876D01*
X008160Y010876D01*
X008162Y010884D02*
X008328Y010884D01*
X008339Y010893D02*
X008165Y010893D01*
X008162Y010887D02*
X008178Y010927D01*
X008199Y010962D01*
X008225Y010995D01*
X008260Y011026D01*
X008301Y011049D01*
X008384Y011075D01*
X008371Y011071D02*
X008604Y011071D01*
X008627Y011063D02*
X008344Y011063D01*
X008318Y011054D02*
X008647Y011054D01*
X008666Y011046D02*
X008295Y011046D01*
X008280Y011037D02*
X008679Y011037D01*
X008692Y011029D02*
X008265Y011029D01*
X008253Y011020D02*
X008705Y011020D01*
X008716Y011012D02*
X008244Y011012D01*
X008234Y011003D02*
X008725Y011003D01*
X008734Y010995D02*
X008225Y010995D01*
X008218Y010986D02*
X008741Y010986D01*
X008748Y010978D02*
X008211Y010978D01*
X008205Y010969D02*
X008754Y010969D01*
X008761Y010961D02*
X008198Y010961D01*
X008193Y010952D02*
X008765Y010952D01*
X008770Y010944D02*
X008188Y010944D01*
X008183Y010935D02*
X008774Y010935D01*
X008779Y010927D02*
X008178Y010927D01*
X008175Y010918D02*
X008395Y010918D01*
X008370Y010910D02*
X008171Y010910D01*
X008168Y010901D02*
X008351Y010901D01*
X008317Y010876D02*
X008291Y010845D01*
X008280Y010824D01*
X008274Y010802D01*
X008272Y010779D01*
X008274Y010736D01*
X008277Y010720D01*
X008284Y010706D01*
X008307Y010677D01*
X008334Y010653D01*
X008363Y010636D01*
X008394Y010625D01*
X008427Y010621D01*
X008528Y010622D01*
X008559Y010627D01*
X008586Y010636D01*
X008587Y010636D01*
X008589Y010635D01*
X008590Y010634D01*
X008590Y010633D01*
X008590Y010628D01*
X009153Y010628D01*
X009006Y010465D01*
X008196Y010465D01*
X008167Y010618D01*
X008246Y010617D01*
X008249Y010620D01*
X008250Y010622D01*
X008240Y010631D01*
X008202Y010666D01*
X008190Y010679D01*
X008181Y010695D01*
X008160Y010747D01*
X008156Y010766D01*
X008155Y010844D01*
X008162Y010887D01*
X008159Y010867D02*
X008309Y010867D01*
X008302Y010859D02*
X008158Y010859D01*
X008156Y010850D02*
X008295Y010850D01*
X008289Y010842D02*
X008155Y010842D01*
X008155Y010833D02*
X008285Y010833D01*
X008280Y010825D02*
X008155Y010825D01*
X008155Y010816D02*
X008278Y010816D01*
X008276Y010808D02*
X008155Y010808D01*
X008156Y010799D02*
X008274Y010799D01*
X008273Y010791D02*
X008156Y010791D01*
X008156Y010782D02*
X008272Y010782D01*
X008272Y010774D02*
X008156Y010774D01*
X008156Y010765D02*
X008273Y010765D01*
X008273Y010757D02*
X008158Y010757D01*
X008160Y010748D02*
X008273Y010748D01*
X008274Y010740D02*
X008163Y010740D01*
X008166Y010731D02*
X008275Y010731D01*
X008277Y010723D02*
X008170Y010723D01*
X008173Y010714D02*
X008280Y010714D01*
X008284Y010706D02*
X008177Y010706D01*
X008180Y010697D02*
X008291Y010697D01*
X008297Y010689D02*
X008185Y010689D01*
X008190Y010680D02*
X008304Y010680D01*
X008313Y010672D02*
X008197Y010672D01*
X008205Y010663D02*
X008322Y010663D01*
X008332Y010655D02*
X008214Y010655D01*
X008223Y010646D02*
X008345Y010646D01*
X008360Y010638D02*
X008233Y010638D01*
X008242Y010629D02*
X008383Y010629D01*
X008249Y010621D02*
X009146Y010621D01*
X009139Y010612D02*
X008168Y010612D01*
X008170Y010604D02*
X009131Y010604D01*
X009123Y010595D02*
X008171Y010595D01*
X008173Y010587D02*
X009116Y010587D01*
X009108Y010578D02*
X008175Y010578D01*
X008176Y010570D02*
X009100Y010570D01*
X009093Y010561D02*
X008178Y010561D01*
X008179Y010553D02*
X009085Y010553D01*
X009077Y010544D02*
X008181Y010544D01*
X008183Y010536D02*
X009070Y010536D01*
X009062Y010527D02*
X008184Y010527D01*
X008186Y010519D02*
X009054Y010519D01*
X009047Y010510D02*
X008187Y010510D01*
X008189Y010502D02*
X009039Y010502D01*
X009031Y010493D02*
X008191Y010493D01*
X008192Y010485D02*
X009024Y010485D01*
X009016Y010476D02*
X008194Y010476D01*
X008195Y010468D02*
X009008Y010468D01*
X008760Y010289D02*
X008603Y010289D01*
X008592Y010298D02*
X008557Y010298D01*
X008368Y009973D01*
X008260Y009954D01*
X008215Y010103D01*
X008268Y010269D01*
X008325Y010346D01*
X008311Y010365D01*
X008289Y010357D01*
X008258Y010343D01*
X008241Y010332D01*
X008314Y010332D01*
X008321Y010340D02*
X008254Y010340D01*
X008241Y010332D02*
X008225Y010318D01*
X008195Y010280D01*
X008174Y010237D01*
X008160Y010184D01*
X008154Y010129D01*
X008154Y010058D01*
X008160Y010002D01*
X008176Y009947D01*
X008202Y009897D01*
X008217Y009878D01*
X008234Y009863D01*
X008255Y009851D01*
X008298Y009837D01*
X008342Y009832D01*
X008387Y009836D01*
X008406Y009842D01*
X008424Y009852D01*
X008439Y009865D01*
X008460Y009891D01*
X008477Y009921D01*
X008489Y009953D01*
X008523Y010096D01*
X008535Y010142D01*
X008554Y010187D01*
X008564Y010201D01*
X008577Y010212D01*
X008592Y010220D01*
X008609Y010224D01*
X008626Y010223D01*
X008642Y010218D01*
X008657Y010209D01*
X008669Y010197D01*
X008682Y010176D01*
X008690Y010152D01*
X008693Y010128D01*
X008693Y010075D01*
X008690Y010052D01*
X008681Y010028D01*
X008667Y010006D01*
X008649Y009988D01*
X008632Y009977D01*
X008612Y009971D01*
X008592Y009970D01*
X008590Y009970D01*
X008590Y009818D01*
X008738Y010099D01*
X008702Y010261D01*
X008571Y010305D01*
X008557Y010298D01*
X008566Y010298D02*
X008453Y010298D01*
X008458Y010306D02*
X008747Y010306D01*
X008741Y010315D02*
X008462Y010315D01*
X008463Y010316D02*
X008447Y010286D01*
X008423Y010221D01*
X008525Y010221D01*
X008529Y010230D02*
X008426Y010230D01*
X008429Y010238D02*
X008534Y010238D01*
X008538Y010247D02*
X008433Y010247D01*
X008436Y010255D02*
X008543Y010255D01*
X008548Y010264D02*
X008439Y010264D01*
X008442Y010272D02*
X008552Y010272D01*
X008542Y010272D02*
X008668Y010272D01*
X008679Y010264D02*
X008772Y010264D01*
X008768Y010272D02*
X008653Y010272D01*
X008643Y010281D02*
X008547Y010281D01*
X008552Y010289D02*
X008618Y010289D01*
X008628Y010281D02*
X008764Y010281D01*
X008761Y010287D02*
X008737Y010320D01*
X008708Y010349D01*
X008686Y010364D01*
X008661Y010374D01*
X008635Y010380D01*
X008594Y010383D01*
X008552Y010379D01*
X008513Y010366D01*
X008497Y010356D01*
X008483Y010343D01*
X008463Y010316D01*
X008468Y010323D02*
X008734Y010323D01*
X008726Y010332D02*
X008475Y010332D01*
X008481Y010340D02*
X008717Y010340D01*
X008708Y010349D02*
X008489Y010349D01*
X008499Y010357D02*
X008696Y010357D01*
X008681Y010366D02*
X008513Y010366D01*
X008538Y010374D02*
X008661Y010374D01*
X008597Y010383D02*
X008592Y010383D01*
X008568Y010301D02*
X008696Y010258D01*
X008731Y010103D01*
X008590Y009818D01*
X008604Y009819D01*
X008627Y009823D01*
X008677Y009840D01*
X008700Y009852D01*
X008721Y009869D01*
X008738Y009889D01*
X008768Y009936D01*
X008784Y009970D01*
X008792Y010006D01*
X008799Y010107D01*
X008797Y010159D01*
X008790Y010211D01*
X008779Y010250D01*
X008761Y010287D01*
X008754Y010298D02*
X008578Y010298D01*
X008568Y010301D02*
X008477Y010134D01*
X008374Y009961D01*
X008254Y009940D01*
X008211Y010105D01*
X008263Y010284D01*
X008314Y010365D01*
X008342Y010368D01*
X008342Y010215D01*
X008331Y010214D01*
X008321Y010212D01*
X008306Y010206D01*
X008293Y010196D01*
X008282Y010185D01*
X008271Y010167D01*
X008263Y010148D01*
X008259Y010128D01*
X008257Y010094D01*
X008259Y010060D01*
X008263Y010041D01*
X008269Y010024D01*
X008277Y010011D01*
X008289Y010001D01*
X008304Y009994D01*
X008320Y009992D01*
X008336Y009995D01*
X008351Y010003D01*
X008364Y010015D01*
X008381Y010042D01*
X008392Y010073D01*
X008408Y010153D01*
X008488Y010153D01*
X008492Y010162D02*
X008410Y010162D01*
X008412Y010170D02*
X008497Y010170D01*
X008501Y010179D02*
X008414Y010179D01*
X008416Y010187D02*
X008506Y010187D01*
X008511Y010196D02*
X008417Y010196D01*
X008419Y010204D02*
X008515Y010204D01*
X008520Y010213D02*
X008421Y010213D01*
X008423Y010221D02*
X008408Y010153D01*
X008406Y010145D02*
X008483Y010145D01*
X008478Y010136D02*
X008405Y010136D01*
X008403Y010128D02*
X008473Y010128D01*
X008468Y010119D02*
X008401Y010119D01*
X008400Y010111D02*
X008463Y010111D01*
X008458Y010102D02*
X008398Y010102D01*
X008396Y010094D02*
X008453Y010094D01*
X008448Y010085D02*
X008394Y010085D01*
X008393Y010077D02*
X008443Y010077D01*
X008438Y010068D02*
X008390Y010068D01*
X008387Y010060D02*
X008433Y010060D01*
X008428Y010051D02*
X008384Y010051D01*
X008381Y010043D02*
X008423Y010043D01*
X008418Y010034D02*
X008376Y010034D01*
X008371Y010026D02*
X008413Y010026D01*
X008408Y010017D02*
X008365Y010017D01*
X008358Y010009D02*
X008402Y010009D01*
X008397Y010000D02*
X008346Y010000D01*
X008374Y009983D02*
X008496Y009983D01*
X008494Y009975D02*
X008369Y009975D01*
X008377Y009966D02*
X008247Y009966D01*
X008249Y009958D02*
X008356Y009958D01*
X008330Y009966D02*
X008492Y009966D01*
X008490Y009958D02*
X008282Y009958D01*
X008259Y009958D02*
X008173Y009958D01*
X008171Y009966D02*
X008256Y009966D01*
X008254Y009975D02*
X008168Y009975D01*
X008166Y009983D02*
X008251Y009983D01*
X008243Y009983D02*
X008387Y009983D01*
X008382Y009975D02*
X008245Y009975D01*
X008249Y009992D02*
X008163Y009992D01*
X008161Y010000D02*
X008246Y010000D01*
X008238Y010000D02*
X008291Y010000D01*
X008280Y010009D02*
X008236Y010009D01*
X008243Y010009D02*
X008159Y010009D01*
X008158Y010017D02*
X008241Y010017D01*
X008234Y010017D02*
X008273Y010017D01*
X008268Y010026D02*
X008232Y010026D01*
X008238Y010026D02*
X008158Y010026D01*
X008157Y010034D02*
X008236Y010034D01*
X008229Y010034D02*
X008265Y010034D01*
X008262Y010043D02*
X008227Y010043D01*
X008233Y010043D02*
X008156Y010043D01*
X008155Y010051D02*
X008231Y010051D01*
X008225Y010051D02*
X008261Y010051D01*
X008259Y010060D02*
X008223Y010060D01*
X008228Y010060D02*
X008154Y010060D01*
X008154Y010068D02*
X008225Y010068D01*
X008221Y010068D02*
X008259Y010068D01*
X008258Y010077D02*
X008218Y010077D01*
X008223Y010077D02*
X008154Y010077D01*
X008154Y010085D02*
X008220Y010085D01*
X008216Y010085D02*
X008258Y010085D01*
X008257Y010094D02*
X008214Y010094D01*
X008218Y010094D02*
X008154Y010094D01*
X008154Y010102D02*
X008215Y010102D01*
X008212Y010102D02*
X008258Y010102D01*
X008258Y010111D02*
X008213Y010111D01*
X008217Y010111D02*
X008154Y010111D01*
X008154Y010119D02*
X008220Y010119D01*
X008215Y010119D02*
X008259Y010119D01*
X008259Y010128D02*
X008218Y010128D01*
X008223Y010128D02*
X008154Y010128D01*
X008155Y010136D02*
X008226Y010136D01*
X008220Y010136D02*
X008261Y010136D01*
X008262Y010145D02*
X008223Y010145D01*
X008228Y010145D02*
X008156Y010145D01*
X008156Y010153D02*
X008231Y010153D01*
X008225Y010153D02*
X008265Y010153D01*
X008268Y010162D02*
X008227Y010162D01*
X008234Y010162D02*
X008157Y010162D01*
X008158Y010170D02*
X008236Y010170D01*
X008230Y010170D02*
X008273Y010170D01*
X008278Y010179D02*
X008232Y010179D01*
X008239Y010179D02*
X008159Y010179D01*
X008160Y010187D02*
X008242Y010187D01*
X008235Y010187D02*
X008284Y010187D01*
X008292Y010196D02*
X008237Y010196D01*
X008245Y010196D02*
X008163Y010196D01*
X008165Y010204D02*
X008247Y010204D01*
X008240Y010204D02*
X008304Y010204D01*
X008324Y010213D02*
X008242Y010213D01*
X008250Y010213D02*
X008167Y010213D01*
X008170Y010221D02*
X008253Y010221D01*
X008245Y010221D02*
X008342Y010221D01*
X008342Y010230D02*
X008247Y010230D01*
X008255Y010230D02*
X008172Y010230D01*
X008175Y010238D02*
X008258Y010238D01*
X008250Y010238D02*
X008342Y010238D01*
X008342Y010247D02*
X008252Y010247D01*
X008255Y010255D02*
X008342Y010255D01*
X008342Y010264D02*
X008257Y010264D01*
X008260Y010272D02*
X008342Y010272D01*
X008342Y010281D02*
X008262Y010281D01*
X008266Y010289D02*
X008342Y010289D01*
X008342Y010298D02*
X008272Y010298D01*
X008277Y010306D02*
X008342Y010306D01*
X008342Y010315D02*
X008282Y010315D01*
X008288Y010323D02*
X008342Y010323D01*
X008342Y010332D02*
X008293Y010332D01*
X008298Y010340D02*
X008342Y010340D01*
X008342Y010349D02*
X008304Y010349D01*
X008309Y010357D02*
X008342Y010357D01*
X008342Y010366D02*
X008321Y010366D01*
X008317Y010357D02*
X008290Y010357D01*
X008271Y010349D02*
X008323Y010349D01*
X008308Y010323D02*
X008231Y010323D01*
X008222Y010315D02*
X008302Y010315D01*
X008296Y010306D02*
X008216Y010306D01*
X008209Y010298D02*
X008289Y010298D01*
X008283Y010289D02*
X008202Y010289D01*
X008196Y010281D02*
X008277Y010281D01*
X008270Y010272D02*
X008191Y010272D01*
X008187Y010264D02*
X008266Y010264D01*
X008264Y010255D02*
X008183Y010255D01*
X008179Y010247D02*
X008261Y010247D01*
X008423Y010068D02*
X008516Y010068D01*
X008514Y010060D02*
X008418Y010060D01*
X008414Y010051D02*
X008512Y010051D01*
X008510Y010043D02*
X008409Y010043D01*
X008404Y010034D02*
X008508Y010034D01*
X008506Y010026D02*
X008399Y010026D01*
X008394Y010017D02*
X008504Y010017D01*
X008502Y010009D02*
X008389Y010009D01*
X008384Y010000D02*
X008500Y010000D01*
X008498Y009992D02*
X008379Y009992D01*
X008392Y009992D02*
X008241Y009992D01*
X008252Y009949D02*
X008307Y009949D01*
X008258Y009941D02*
X008254Y009941D01*
X008197Y009907D02*
X008469Y009907D01*
X008474Y009915D02*
X008193Y009915D01*
X008188Y009924D02*
X008478Y009924D01*
X008481Y009932D02*
X008184Y009932D01*
X008180Y009941D02*
X008484Y009941D01*
X008488Y009949D02*
X008176Y009949D01*
X008201Y009898D02*
X008464Y009898D01*
X008459Y009890D02*
X008208Y009890D01*
X008214Y009881D02*
X008452Y009881D01*
X008445Y009873D02*
X008223Y009873D01*
X008233Y009864D02*
X008438Y009864D01*
X008428Y009856D02*
X008247Y009856D01*
X008266Y009847D02*
X008416Y009847D01*
X008396Y009839D02*
X008292Y009839D01*
X008428Y010077D02*
X008518Y010077D01*
X008520Y010085D02*
X008433Y010085D01*
X008438Y010094D02*
X008522Y010094D01*
X008525Y010102D02*
X008443Y010102D01*
X008448Y010111D02*
X008527Y010111D01*
X008529Y010119D02*
X008453Y010119D01*
X008458Y010128D02*
X008531Y010128D01*
X008534Y010136D02*
X008463Y010136D01*
X008468Y010145D02*
X008536Y010145D01*
X008540Y010153D02*
X008473Y010153D01*
X008478Y010162D02*
X008543Y010162D01*
X008547Y010170D02*
X008483Y010170D01*
X008488Y010179D02*
X008551Y010179D01*
X008554Y010187D02*
X008493Y010187D01*
X008498Y010196D02*
X008560Y010196D01*
X008567Y010204D02*
X008503Y010204D01*
X008507Y010213D02*
X008577Y010213D01*
X008597Y010221D02*
X008512Y010221D01*
X008517Y010230D02*
X008709Y010230D01*
X008702Y010230D02*
X008785Y010230D01*
X008782Y010238D02*
X008700Y010238D01*
X008707Y010238D02*
X008522Y010238D01*
X008527Y010247D02*
X008705Y010247D01*
X008699Y010247D02*
X008780Y010247D01*
X008777Y010255D02*
X008697Y010255D01*
X008703Y010255D02*
X008532Y010255D01*
X008537Y010264D02*
X008694Y010264D01*
X008704Y010221D02*
X008787Y010221D01*
X008789Y010213D02*
X008706Y010213D01*
X008713Y010213D02*
X008651Y010213D01*
X008662Y010204D02*
X008715Y010204D01*
X008708Y010204D02*
X008791Y010204D01*
X008792Y010196D02*
X008710Y010196D01*
X008716Y010196D02*
X008670Y010196D01*
X008675Y010187D02*
X008718Y010187D01*
X008712Y010187D02*
X008793Y010187D01*
X008794Y010179D02*
X008714Y010179D01*
X008720Y010179D02*
X008680Y010179D01*
X008684Y010170D02*
X008722Y010170D01*
X008716Y010170D02*
X008796Y010170D01*
X008797Y010162D02*
X008718Y010162D01*
X008724Y010162D02*
X008687Y010162D01*
X008690Y010153D02*
X008726Y010153D01*
X008720Y010153D02*
X008797Y010153D01*
X008798Y010145D02*
X008722Y010145D01*
X008728Y010145D02*
X008691Y010145D01*
X008692Y010136D02*
X008730Y010136D01*
X008723Y010136D02*
X008798Y010136D01*
X008798Y010128D02*
X008725Y010128D01*
X008732Y010128D02*
X008693Y010128D01*
X008693Y010119D02*
X008733Y010119D01*
X008727Y010119D02*
X008799Y010119D01*
X008799Y010111D02*
X008729Y010111D01*
X008735Y010111D02*
X008693Y010111D01*
X008693Y010102D02*
X008737Y010102D01*
X008731Y010102D02*
X008799Y010102D01*
X008798Y010094D02*
X008726Y010094D01*
X008735Y010094D02*
X008693Y010094D01*
X008693Y010085D02*
X008731Y010085D01*
X008722Y010085D02*
X008798Y010085D01*
X008797Y010077D02*
X008718Y010077D01*
X008726Y010077D02*
X008693Y010077D01*
X008692Y010068D02*
X008722Y010068D01*
X008714Y010068D02*
X008796Y010068D01*
X008796Y010060D02*
X008710Y010060D01*
X008717Y010060D02*
X008691Y010060D01*
X008690Y010051D02*
X008713Y010051D01*
X008705Y010051D02*
X008795Y010051D01*
X008795Y010043D02*
X008701Y010043D01*
X008708Y010043D02*
X008687Y010043D01*
X008683Y010034D02*
X008704Y010034D01*
X008697Y010034D02*
X008794Y010034D01*
X008793Y010026D02*
X008693Y010026D01*
X008699Y010026D02*
X008680Y010026D01*
X008674Y010017D02*
X008695Y010017D01*
X008689Y010017D02*
X008793Y010017D01*
X008792Y010009D02*
X008684Y010009D01*
X008690Y010009D02*
X008669Y010009D01*
X008661Y010000D02*
X008686Y010000D01*
X008680Y010000D02*
X008791Y010000D01*
X008789Y009992D02*
X008676Y009992D01*
X008682Y009992D02*
X008653Y009992D01*
X008641Y009983D02*
X008677Y009983D01*
X008672Y009983D02*
X008787Y009983D01*
X008785Y009975D02*
X008668Y009975D01*
X008673Y009975D02*
X008624Y009975D01*
X008590Y009966D02*
X008668Y009966D01*
X008663Y009966D02*
X008782Y009966D01*
X008778Y009958D02*
X008659Y009958D01*
X008664Y009958D02*
X008590Y009958D01*
X008590Y009949D02*
X008659Y009949D01*
X008655Y009949D02*
X008774Y009949D01*
X008770Y009941D02*
X008651Y009941D01*
X008655Y009941D02*
X008590Y009941D01*
X008590Y009932D02*
X008650Y009932D01*
X008647Y009932D02*
X008766Y009932D01*
X008760Y009924D02*
X008642Y009924D01*
X008646Y009924D02*
X008590Y009924D01*
X008590Y009915D02*
X008641Y009915D01*
X008638Y009915D02*
X008755Y009915D01*
X008749Y009907D02*
X008634Y009907D01*
X008637Y009907D02*
X008590Y009907D01*
X008590Y009898D02*
X008632Y009898D01*
X008630Y009898D02*
X008744Y009898D01*
X008738Y009890D02*
X008626Y009890D01*
X008628Y009890D02*
X008590Y009890D01*
X008590Y009881D02*
X008623Y009881D01*
X008621Y009881D02*
X008732Y009881D01*
X008724Y009873D02*
X008617Y009873D01*
X008619Y009873D02*
X008590Y009873D01*
X008590Y009864D02*
X008614Y009864D01*
X008613Y009864D02*
X008716Y009864D01*
X008705Y009856D02*
X008609Y009856D01*
X008610Y009856D02*
X008590Y009856D01*
X008590Y009847D02*
X008605Y009847D01*
X008604Y009847D02*
X008691Y009847D01*
X008673Y009839D02*
X008600Y009839D01*
X008601Y009839D02*
X008590Y009839D01*
X008590Y009830D02*
X008596Y009830D01*
X008648Y009830D01*
X008620Y009822D02*
X008592Y009822D01*
X008590Y009822D01*
X008632Y010221D02*
X008711Y010221D01*
X008562Y010289D02*
X008449Y010289D01*
X008445Y010281D02*
X008557Y010281D01*
X008566Y010629D02*
X008590Y010629D01*
X008595Y010638D02*
X008714Y010638D01*
X008726Y010646D02*
X008607Y010646D01*
X008623Y010655D02*
X008737Y010655D01*
X008746Y010663D02*
X008635Y010663D01*
X008644Y010672D02*
X008754Y010672D01*
X008762Y010680D02*
X008652Y010680D01*
X008658Y010689D02*
X008767Y010689D01*
X008772Y010697D02*
X008663Y010697D01*
X008674Y010723D02*
X008784Y010723D01*
X008787Y010731D02*
X008676Y010731D01*
X008677Y010740D02*
X008790Y010740D01*
X008792Y010748D02*
X008679Y010748D01*
X008680Y010757D02*
X008793Y010757D01*
X008794Y010765D02*
X008680Y010765D01*
X008680Y010774D02*
X008795Y010774D01*
X008797Y010782D02*
X008680Y010782D01*
X008680Y010791D02*
X008798Y010791D01*
X008798Y010799D02*
X008678Y010799D01*
X008676Y010808D02*
X008798Y010808D01*
X008798Y010816D02*
X008675Y010816D01*
X008673Y010825D02*
X008798Y010825D01*
X008798Y010833D02*
X008669Y010833D01*
X008665Y010842D02*
X008797Y010842D01*
X008796Y010850D02*
X008661Y010850D01*
X008656Y010859D02*
X008795Y010859D01*
X008794Y010867D02*
X008649Y010867D01*
X008642Y010876D02*
X008792Y010876D01*
X008791Y010884D02*
X008633Y010884D01*
X008621Y010893D02*
X008789Y010893D01*
X008787Y010901D02*
X008608Y010901D01*
X008586Y010910D02*
X008784Y010910D01*
X008781Y010918D02*
X008540Y010918D01*
X008567Y011080D02*
X008418Y011080D01*
X008500Y011190D02*
X008741Y011190D01*
X008750Y011199D02*
X008492Y011199D01*
X008485Y011207D02*
X008756Y011207D01*
X008762Y011216D02*
X008478Y011216D01*
X008473Y011224D02*
X008766Y011224D01*
X008771Y011233D02*
X008468Y011233D01*
X008464Y011241D02*
X008775Y011241D01*
X008779Y011250D02*
X008460Y011250D01*
X008458Y011258D02*
X008783Y011258D01*
X008786Y011267D02*
X008455Y011267D01*
X008452Y011275D02*
X008788Y011275D01*
X008790Y011284D02*
X008449Y011284D01*
X008447Y011292D02*
X008792Y011292D01*
X008794Y011301D02*
X008444Y011301D01*
X008442Y011309D02*
X008796Y011309D01*
X008798Y011318D02*
X008654Y011318D01*
X008666Y011326D02*
X008798Y011326D01*
X008798Y011335D02*
X008673Y011335D01*
X008680Y011343D02*
X008799Y011343D01*
X008799Y011369D02*
X008690Y011369D01*
X008692Y011377D02*
X008799Y011377D01*
X008799Y011386D02*
X008692Y011386D01*
X008693Y011394D02*
X008798Y011394D01*
X008797Y011403D02*
X008693Y011403D01*
X008693Y011411D02*
X008795Y011411D01*
X008794Y011420D02*
X008693Y011420D01*
X008694Y011428D02*
X008793Y011428D01*
X008792Y011437D02*
X008694Y011437D01*
X008693Y011445D02*
X008790Y011445D01*
X008788Y011454D02*
X008692Y011454D01*
X008691Y011462D02*
X008785Y011462D01*
X008782Y011471D02*
X008690Y011471D01*
X008688Y011479D02*
X008779Y011479D01*
X008776Y011488D02*
X008755Y011525D01*
X008743Y011539D02*
X008645Y011539D01*
X008630Y011547D02*
X008736Y011547D01*
X008729Y011556D02*
X008594Y011556D01*
X008493Y011530D02*
X008403Y011530D01*
X008407Y011522D02*
X008495Y011522D01*
X008498Y011513D02*
X008410Y011513D01*
X008413Y011505D02*
X008500Y011505D01*
X008502Y011496D02*
X008415Y011496D01*
X008417Y011488D02*
X008504Y011488D01*
X008505Y011479D02*
X008418Y011479D01*
X008420Y011471D02*
X008507Y011471D01*
X008508Y011462D02*
X008421Y011462D01*
X008423Y011454D02*
X008509Y011454D01*
X008510Y011445D02*
X008424Y011445D01*
X008424Y011437D02*
X008511Y011437D01*
X008512Y011428D02*
X008425Y011428D01*
X008426Y011420D02*
X008513Y011420D01*
X008513Y011411D02*
X008427Y011411D01*
X008428Y011403D02*
X008515Y011403D01*
X008516Y011394D02*
X008429Y011394D01*
X008430Y011386D02*
X008518Y011386D01*
X008521Y011377D02*
X008431Y011377D01*
X008432Y011369D02*
X008524Y011369D01*
X008528Y011360D02*
X008433Y011360D01*
X008434Y011352D02*
X008533Y011352D01*
X008538Y011343D02*
X008436Y011343D01*
X008437Y011335D02*
X008545Y011335D01*
X008556Y011326D02*
X008439Y011326D01*
X008440Y011318D02*
X008574Y011318D01*
X008510Y011182D02*
X008731Y011182D01*
X008717Y011173D02*
X008521Y011173D01*
X008674Y011156D02*
X008713Y011171D01*
X008490Y011539D02*
X008398Y011539D01*
X008390Y011547D02*
X008486Y011547D01*
X008478Y011556D02*
X008380Y011556D01*
X008014Y011148D02*
X007372Y011148D01*
X007368Y011156D02*
X008004Y011156D01*
X007994Y011165D02*
X007365Y011165D01*
X007367Y011157D02*
X007380Y011132D01*
X007397Y011109D01*
X007419Y011091D01*
X007448Y011075D01*
X007479Y011066D01*
X007512Y011063D01*
X008109Y011063D01*
X007893Y011255D01*
X007862Y011289D01*
X007838Y011329D01*
X007833Y011344D01*
X007830Y011359D01*
X007830Y011449D01*
X007825Y011503D01*
X007811Y011554D01*
X007787Y011603D01*
X007755Y011648D01*
X007717Y011689D01*
X007673Y011724D01*
X007607Y011761D01*
X007535Y011786D01*
X007460Y011797D01*
X007384Y011795D01*
X007343Y011787D01*
X007304Y011773D01*
X007267Y011753D01*
X007222Y011717D01*
X007681Y011717D01*
X007692Y011709D02*
X007215Y011709D01*
X007222Y011717D02*
X007186Y011673D01*
X007221Y011673D01*
X007227Y011672D01*
X007232Y011670D01*
X007246Y011658D01*
X007257Y011643D01*
X007260Y011635D01*
X007262Y011612D01*
X007258Y011590D01*
X007248Y011570D01*
X007222Y011534D01*
X007208Y011517D01*
X007191Y011503D01*
X007172Y011491D01*
X007152Y011483D01*
X007139Y011480D01*
X007126Y011481D01*
X007104Y011487D01*
X007085Y011499D01*
X007070Y011516D01*
X007059Y011536D01*
X007053Y011556D01*
X007051Y011577D01*
X007051Y011601D01*
X007051Y011601D01*
X007050Y011600D01*
X007037Y011583D01*
X007028Y011563D01*
X007022Y011549D01*
X007018Y011540D01*
X007009Y011505D01*
X007080Y011505D01*
X007072Y011513D02*
X007011Y011513D01*
X007009Y011505D02*
X007006Y011470D01*
X007009Y011436D01*
X007018Y011403D01*
X007348Y011403D01*
X007347Y011402D02*
X007365Y011417D01*
X007386Y011427D01*
X007409Y011431D01*
X007432Y011429D01*
X007454Y011422D01*
X007473Y011409D01*
X007488Y011391D01*
X007500Y011369D01*
X007508Y011345D01*
X007512Y011320D01*
X007511Y011291D01*
X007502Y011263D01*
X007487Y011238D01*
X007473Y011225D01*
X007456Y011216D01*
X007438Y011212D01*
X007421Y011212D01*
X007403Y011216D01*
X007396Y011219D01*
X007391Y011225D01*
X007367Y011258D01*
X007364Y011264D01*
X007362Y011271D01*
X007363Y011278D01*
X007360Y011259D01*
X007357Y011222D01*
X007360Y011185D01*
X007367Y011157D01*
X007363Y011173D02*
X007985Y011173D01*
X007975Y011182D02*
X007361Y011182D01*
X007360Y011190D02*
X007966Y011190D01*
X007956Y011199D02*
X007359Y011199D01*
X007358Y011207D02*
X007947Y011207D01*
X007937Y011216D02*
X007455Y011216D01*
X007472Y011224D02*
X007928Y011224D01*
X007918Y011233D02*
X007482Y011233D01*
X007489Y011241D02*
X007908Y011241D01*
X007899Y011250D02*
X007494Y011250D01*
X007499Y011258D02*
X007890Y011258D01*
X007882Y011267D02*
X007503Y011267D01*
X007506Y011275D02*
X007874Y011275D01*
X007867Y011284D02*
X007508Y011284D01*
X007511Y011292D02*
X007860Y011292D01*
X007855Y011301D02*
X007511Y011301D01*
X007511Y011309D02*
X007850Y011309D01*
X007845Y011318D02*
X007512Y011318D01*
X007511Y011326D02*
X007840Y011326D01*
X007836Y011335D02*
X007510Y011335D01*
X007508Y011343D02*
X007833Y011343D01*
X007831Y011352D02*
X007506Y011352D01*
X007503Y011360D02*
X007830Y011360D01*
X007830Y011369D02*
X007500Y011369D01*
X007495Y011377D02*
X007830Y011377D01*
X007830Y011386D02*
X007491Y011386D01*
X007485Y011394D02*
X007830Y011394D01*
X007830Y011403D02*
X007478Y011403D01*
X007469Y011411D02*
X007830Y011411D01*
X007830Y011420D02*
X007457Y011420D01*
X007435Y011428D02*
X007830Y011428D01*
X007830Y011437D02*
X007009Y011437D01*
X007008Y011445D02*
X007830Y011445D01*
X007830Y011454D02*
X007007Y011454D01*
X007007Y011462D02*
X007829Y011462D01*
X007828Y011471D02*
X007006Y011471D01*
X007007Y011479D02*
X007827Y011479D01*
X007826Y011488D02*
X007163Y011488D01*
X007180Y011496D02*
X007826Y011496D01*
X007825Y011505D02*
X007193Y011505D01*
X007203Y011513D02*
X007822Y011513D01*
X007820Y011522D02*
X007212Y011522D01*
X007219Y011530D02*
X007817Y011530D01*
X007815Y011539D02*
X007225Y011539D01*
X007232Y011547D02*
X007813Y011547D01*
X007810Y011556D02*
X007238Y011556D01*
X007244Y011564D02*
X007806Y011564D01*
X007802Y011573D02*
X007249Y011573D01*
X007254Y011581D02*
X007798Y011581D01*
X007793Y011590D02*
X007258Y011590D01*
X007260Y011598D02*
X007789Y011598D01*
X007784Y011607D02*
X007261Y011607D01*
X007262Y011615D02*
X007778Y011615D01*
X007772Y011624D02*
X007261Y011624D01*
X007260Y011632D02*
X007766Y011632D01*
X007760Y011641D02*
X007258Y011641D01*
X007253Y011649D02*
X007754Y011649D01*
X007746Y011658D02*
X007247Y011658D01*
X007237Y011666D02*
X007738Y011666D01*
X007730Y011675D02*
X007187Y011675D01*
X007194Y011683D02*
X007722Y011683D01*
X007713Y011692D02*
X007201Y011692D01*
X007208Y011700D02*
X007703Y011700D01*
X007670Y011726D02*
X007233Y011726D01*
X007244Y011734D02*
X007655Y011734D01*
X007640Y011743D02*
X007254Y011743D01*
X007265Y011751D02*
X007625Y011751D01*
X007609Y011760D02*
X007280Y011760D01*
X007295Y011768D02*
X007586Y011768D01*
X007562Y011777D02*
X007315Y011777D01*
X007339Y011785D02*
X007537Y011785D01*
X007483Y011794D02*
X007378Y011794D01*
X007392Y011428D02*
X007011Y011428D01*
X007013Y011420D02*
X007370Y011420D01*
X007358Y011411D02*
X007015Y011411D01*
X007018Y011403D02*
X007033Y011372D01*
X007055Y011341D01*
X007081Y011314D01*
X007105Y011297D01*
X007132Y011286D01*
X007161Y011283D01*
X007190Y011287D01*
X007217Y011298D01*
X007286Y011345D01*
X007347Y011402D01*
X007339Y011394D02*
X007022Y011394D01*
X007026Y011386D02*
X007330Y011386D01*
X007321Y011377D02*
X007030Y011377D01*
X007035Y011369D02*
X007312Y011369D01*
X007303Y011360D02*
X007041Y011360D01*
X007048Y011352D02*
X007294Y011352D01*
X007284Y011343D02*
X007054Y011343D01*
X007061Y011335D02*
X007272Y011335D01*
X007259Y011326D02*
X007069Y011326D01*
X007077Y011318D02*
X007246Y011318D01*
X007234Y011309D02*
X007088Y011309D01*
X007099Y011301D02*
X007221Y011301D01*
X007203Y011292D02*
X007117Y011292D01*
X007155Y011284D02*
X007166Y011284D01*
X007360Y011258D02*
X007367Y011258D01*
X007363Y011267D02*
X007361Y011267D01*
X007363Y011275D02*
X007363Y011275D01*
X007359Y011250D02*
X007373Y011250D01*
X007379Y011241D02*
X007359Y011241D01*
X007358Y011233D02*
X007385Y011233D01*
X007392Y011224D02*
X007357Y011224D01*
X007358Y011216D02*
X007404Y011216D01*
X007376Y011139D02*
X008023Y011139D01*
X008033Y011131D02*
X007381Y011131D01*
X007387Y011122D02*
X008042Y011122D01*
X008052Y011114D02*
X007394Y011114D01*
X007402Y011105D02*
X008061Y011105D01*
X008071Y011097D02*
X007412Y011097D01*
X007424Y011088D02*
X008081Y011088D01*
X008090Y011080D02*
X007439Y011080D01*
X007461Y011071D02*
X008100Y011071D01*
X007104Y011488D02*
X007008Y011488D01*
X007008Y011496D02*
X007090Y011496D01*
X007067Y011522D02*
X007013Y011522D01*
X007016Y011530D02*
X007062Y011530D01*
X007058Y011539D02*
X007018Y011539D01*
X007021Y011547D02*
X007056Y011547D01*
X007053Y011556D02*
X007025Y011556D01*
X007029Y011564D02*
X007052Y011564D01*
X007051Y011573D02*
X007032Y011573D01*
X007036Y011581D02*
X007051Y011581D01*
X007051Y011590D02*
X007042Y011590D01*
X007049Y011598D02*
X007051Y011598D01*
X008281Y014309D02*
X008279Y014353D01*
M02*
