%
M48
M72
T01C0.0150
T02C0.0200
T03C0.0315
T04C0.0354
T05C0.0400
%
T01
X6560Y623
X6560Y943
X6560Y1243
X6560Y1543
X6550Y1853
X6560Y2173
X6560Y2493
X6560Y2793
X6970Y4463
X7290Y4463
X7590Y4463
X7890Y4463
X8200Y4473
X8520Y4463
X8840Y4463
X9140Y4463
X9560Y7073
X9560Y7323
X9560Y7573
X9560Y7853
X9560Y8133
X9560Y8463
X9560Y8793
X9560Y9073
X9560Y9323
X9560Y9573
X9560Y9823
X9560Y13473
X9560Y13803
X9560Y14133
X9560Y14463
X9560Y14793
X9560Y15123
X9560Y15453
X7560Y16473
X7560Y16803
X7560Y17133
X7560Y17463
X7560Y17793
X7560Y18123
X7560Y18453
X7560Y20973
X7560Y21303
X7560Y21633
X7560Y21963
X7560Y22293
X7560Y22623
X7560Y22953
X9560Y23473
X9570Y23243
X9570Y22993
X9560Y23803
X9560Y24143
X9560Y24473
X9560Y24733
X9570Y24953
X9550Y20453
X9550Y20223
X9560Y19963
X9560Y19633
X9560Y19293
X9560Y18963
X9560Y18713
X9560Y18493
X4970Y12213
X4630Y12213
X4300Y12213
X3970Y12213
X3640Y12213
X3310Y12213
X2980Y12213
X2650Y12213
X2380Y12193
X2110Y12193
X2150Y10713
X2480Y10713
X2810Y10713
X3140Y10713
X3470Y10713
X3800Y10713
X4130Y10713
X4470Y10713
X14910Y11093
X15170Y11093
X15430Y11093
X15680Y11093
X15700Y12323
X15450Y12323
X15190Y12323
X14930Y12323
X14910Y16593
X15170Y16593
X15430Y16593
X15680Y16593
X15700Y17823
X15450Y17823
X15190Y17823
X14930Y17823
X14910Y21093
X15170Y21093
X15430Y21093
X15680Y21093
X15700Y22323
X15450Y22323
X15190Y22323
X14930Y22323
X14930Y5823
X15190Y5823
X15450Y5823
X15700Y5823
X15680Y4593
X15430Y4593
X15170Y4593
X14910Y4593
T02
X1310Y2463
X2660Y5063
X3210Y5913
X4210Y4113
X3300Y2463
X900Y6503
X810Y8313
X2160Y8763
X4510Y11713
X3310Y13863
X2940Y15183
X2710Y15813
X3040Y17593
X3560Y18813
X3710Y19513
X2960Y19463
X2510Y19963
X3210Y20863
X2990Y22333
X3820Y23163
X4760Y22413
X5260Y22513
X3810Y24513
X5810Y24963
X8720Y23763
X8620Y22313
X8960Y17863
X8160Y13513
X8960Y13318
X6310Y11513
X5380Y14063
X4710Y13973
X4690Y14963
X3810Y17713
X4260Y18813
X4810Y19813
X1260Y19463
X5310Y7713
X12310Y20463
X14310Y12963
T03
X11275Y9349
X13696Y6927
T04
X4176Y2463
X2444Y2463
T05
X2810Y9963
X1810Y9963
X810Y9963
X1310Y12963
X810Y13963
X810Y14963
X810Y15963
X810Y16963
X810Y17963
X810Y18963
X810Y19963
X810Y20963
X810Y21963
X810Y22963
X810Y23963
X810Y24963
X1960Y18413
X1960Y17413
X2310Y12963
X3310Y12963
X4310Y12963
X5310Y12963
X6310Y12963
X6810Y13963
X6810Y14963
X6810Y15963
X6810Y16963
X6810Y17963
X6810Y18963
X6810Y19963
X6810Y20963
X6810Y21963
X6810Y22963
X6810Y23963
X6810Y24963
X10310Y24963
X10310Y23963
X10310Y22963
X10310Y20463
X10310Y19463
X10310Y18463
X10310Y15963
X10310Y14963
X10310Y13963
X10310Y12963
X10310Y8963
X10310Y7963
X8310Y5963
X8310Y4963
X8310Y3963
X8310Y2963
X8310Y1963
X8310Y963
X7310Y963
X7310Y1963
X7310Y2963
X7310Y3963
X7310Y4963
X7310Y5963
X7310Y6963
X7310Y7963
X7310Y8963
X7310Y9963
X5810Y9963
X4810Y9963
X3810Y9963
X9310Y3963
X9310Y2963
X9310Y1963
X9310Y963
X10310Y963
X10310Y1963
X10310Y2963
X10310Y3963
X11310Y3963
X11310Y2963
X11310Y1963
X11310Y963
X12310Y963
X12310Y1963
X12310Y2963
X12310Y3963
X13310Y3963
X13310Y2963
X13310Y1963
X13310Y963
X14310Y963
X14310Y1963
X14310Y2963
X14310Y3963
X15310Y3963
X15310Y2963
X15310Y1963
X15310Y963
M30
